# 3ds Max Wavefront OBJ Exporter v0.97b - (c)2007 guruware
# File Created: 23.11.2018 10:50:38

mtllib Auricular_2.mtl

#
# object Auricular2
#

v  -14.5498 40.2988 -4.7850
v  -14.5388 40.1337 -5.6170
v  -14.8565 40.1127 -5.5536
v  -15.1258 40.0949 -5.3733
v  -15.3058 40.0830 -5.1034
v  -15.3690 40.0788 -4.7850
v  -15.3058 40.0830 -4.4666
v  -15.1258 40.0949 -4.1967
v  -14.8565 40.1127 -4.0164
v  -14.5388 40.1337 -3.9531
v  -14.2212 40.1547 -4.0164
v  -13.9518 40.1725 -4.1967
v  -13.7719 40.1844 -4.4666
v  -13.7087 40.1886 -4.7850
v  -13.7719 40.1844 -5.1034
v  -13.9518 40.1725 -5.3733
v  -14.2212 40.1547 -5.5536
v  -14.5078 39.6635 -6.3223
v  -15.0948 39.6247 -6.2053
v  -15.5924 39.5918 -5.8720
v  -15.9249 39.5698 -5.3733
v  -16.0417 39.5621 -4.7850
v  -15.9249 39.5698 -4.1967
v  -15.5924 39.5918 -3.6980
v  -15.0948 39.6247 -3.3648
v  -14.5078 39.6635 -3.2478
v  -13.9208 39.7023 -3.3648
v  -13.4231 39.7352 -3.6980
v  -13.0906 39.7571 -4.1967
v  -12.9738 39.7649 -4.7850
v  -13.0906 39.7571 -5.3733
v  -13.4231 39.7352 -5.8720
v  -13.9208 39.7023 -6.2053
v  -14.4612 38.9597 -6.7935
v  -15.2282 38.9090 -6.6407
v  -15.8784 38.8660 -6.2053
v  -16.3128 38.8373 -5.5536
v  -16.4654 38.8272 -4.7850
v  -16.3128 38.8373 -4.0164
v  -15.8784 38.8660 -3.3648
v  -15.2282 38.9090 -2.9294
v  -14.4612 38.9597 -2.7765
v  -13.6943 39.0104 -2.9294
v  -13.0441 39.0534 -3.3648
v  -12.6096 39.0821 -4.0164
v  -12.4571 39.0922 -4.7850
v  -12.6096 39.0821 -5.5536
v  -13.0441 39.0534 -6.2053
v  -13.6943 39.0104 -6.6407
v  -14.4064 38.1296 -6.9590
v  -15.2365 38.0747 -6.7935
v  -15.9403 38.0282 -6.3223
v  -16.4105 37.9971 -5.6170
v  -16.5756 37.9862 -4.7850
v  -16.4105 37.9971 -3.9531
v  -15.9403 38.0282 -3.2478
v  -15.2365 38.0747 -2.7765
v  -14.4064 38.1296 -2.6110
v  -13.5762 38.1844 -2.7765
v  -12.8724 38.2310 -3.2478
v  -12.4022 38.2620 -3.9531
v  -12.2371 38.2730 -4.7850
v  -12.4022 38.2620 -5.6170
v  -12.8724 38.2310 -6.3223
v  -13.5762 38.1844 -6.7935
v  -14.3515 37.2994 -6.7935
v  -15.1184 37.2487 -6.6407
v  -15.7686 37.2057 -6.2053
v  -16.2031 37.1770 -5.5536
v  -16.3556 37.1669 -4.7850
v  -16.2031 37.1770 -4.0164
v  -15.7686 37.2057 -3.3648
v  -15.1184 37.2487 -2.9294
v  -14.3515 37.2994 -2.7765
v  -13.5845 37.3501 -2.9294
v  -12.9343 37.3931 -3.3648
v  -12.4999 37.4218 -4.0164
v  -12.3473 37.4319 -4.7850
v  -12.4999 37.4218 -5.5536
v  -12.9343 37.3931 -6.2053
v  -13.5845 37.3501 -6.6407
v  -14.3006 36.5302 -5.8781
v  -14.7180 36.5026 -5.7949
v  -15.0719 36.4792 -5.5579
v  -15.3083 36.4636 -5.2033
v  -15.3913 36.4581 -4.7850
v  -15.3083 36.4636 -4.3667
v  -15.0719 36.4792 -4.0121
v  -14.7180 36.5026 -3.7751
v  -14.3006 36.5302 -3.6919
v  -13.8832 36.5578 -3.7751
v  -13.5294 36.5812 -4.0121
v  -13.2930 36.5968 -4.3667
v  -13.2099 36.6023 -4.7850
v  -13.2930 36.5968 -5.2033
v  -13.5294 36.5812 -5.5579
v  -13.8832 36.5578 -5.7949
v  -12.8562 29.8062 -4.7603
v  -13.1663 29.7857 -5.5105
v  -13.9149 29.7362 -5.8213
v  -14.6635 29.6867 -5.5105
v  -14.9736 29.6662 -4.7603
v  -14.6635 29.6867 -4.0101
v  -13.9149 29.7362 -3.6993
v  -13.1663 29.7857 -4.0101
v  -13.0136 32.1864 -4.7603
v  -13.3237 32.1659 -5.5105
v  -14.0723 32.1164 -5.8213
v  -14.8209 32.0670 -5.5105
v  -15.1309 32.0465 -4.7603
v  -14.8209 32.0670 -4.0101
v  -14.0723 32.1164 -3.6993
v  -13.3237 32.1659 -4.0101
v  -13.1709 34.5667 -4.7603
v  -13.4810 34.5462 -5.5105
v  -14.2296 34.4967 -5.8213
v  -14.9782 34.4472 -5.5105
v  -15.2883 34.4267 -4.7603
v  -14.9782 34.4472 -4.0101
v  -14.2296 34.4967 -3.6993
v  -13.4810 34.5462 -4.0101
v  -13.3283 36.9469 -4.7603
v  -13.6384 36.9264 -5.5105
v  -14.3870 36.8769 -5.8213
v  -15.1356 36.8275 -5.5105
v  -15.4456 36.8070 -4.7603
v  -15.1356 36.8275 -4.0101
v  -14.3870 36.8769 -3.6993
v  -13.6384 36.9264 -4.0101
v  -13.9149 29.7362 -4.7603
# 130 vertices

vn -0.0660 0.9978 -0.0000
vn 0.0936 0.9233 -0.3724
vn -0.0604 0.9132 -0.4031
vn -0.2143 0.9030 -0.3724
vn -0.0660 0.9978 -0.0000
vn -0.2143 0.9030 -0.3724
vn -0.3448 0.8944 -0.2850
vn -0.4320 0.8886 -0.1543
vn -0.0660 0.9978 -0.0000
vn -0.4320 0.8886 -0.1543
vn -0.4626 0.8866 -0.0000
vn -0.4320 0.8886 0.1543
vn -0.0660 0.9978 -0.0000
vn -0.4320 0.8886 0.1543
vn -0.3448 0.8944 0.2850
vn -0.2143 0.9030 0.3724
vn -0.0660 0.9978 -0.0000
vn -0.2143 0.9030 0.3724
vn -0.0604 0.9132 0.4031
vn 0.0936 0.9233 0.3724
vn -0.0660 0.9978 -0.0000
vn 0.0936 0.9233 0.3724
vn 0.2240 0.9320 0.2850
vn 0.3112 0.9377 0.1543
vn -0.0660 0.9978 -0.0000
vn 0.3112 0.9377 0.1543
vn 0.3419 0.9398 -0.0000
vn 0.3112 0.9377 -0.1543
vn -0.0660 0.9978 -0.0000
vn 0.3112 0.9377 -0.1543
vn 0.2240 0.9320 -0.2850
vn 0.0936 0.9233 -0.3724
vn -0.0604 0.9132 -0.4031
vn -0.0459 0.6936 -0.7189
vn -0.3203 0.6755 -0.6641
vn -0.2143 0.9030 -0.3724
vn -0.2143 0.9030 -0.3724
vn -0.3203 0.6755 -0.6641
vn -0.5531 0.6601 -0.5083
vn -0.3448 0.8944 -0.2850
vn -0.3448 0.8944 -0.2850
vn -0.5531 0.6601 -0.5083
vn -0.7085 0.6498 -0.2751
vn -0.4320 0.8886 -0.1543
vn -0.4320 0.8886 -0.1543
vn -0.7085 0.6498 -0.2751
vn -0.7631 0.6462 -0.0000
vn -0.4626 0.8866 -0.0000
vn -0.4626 0.8866 -0.0000
vn -0.7631 0.6462 -0.0000
vn -0.7085 0.6498 0.2751
vn -0.4320 0.8886 0.1543
vn -0.4320 0.8886 0.1543
vn -0.7085 0.6498 0.2751
vn -0.5531 0.6601 0.5083
vn -0.3448 0.8944 0.2850
vn -0.3448 0.8944 0.2850
vn -0.5531 0.6601 0.5083
vn -0.3203 0.6755 0.6641
vn -0.2143 0.9030 0.3724
vn -0.2143 0.9030 0.3724
vn -0.3203 0.6755 0.6641
vn -0.0459 0.6936 0.7189
vn -0.0604 0.9132 0.4031
vn -0.0604 0.9132 0.4031
vn -0.0459 0.6936 0.7189
vn 0.2286 0.7118 0.6641
vn 0.0936 0.9233 0.3724
vn 0.0936 0.9233 0.3724
vn 0.2286 0.7118 0.6641
vn 0.4613 0.7272 0.5083
vn 0.2240 0.9320 0.2850
vn 0.2240 0.9320 0.2850
vn 0.4613 0.7272 0.5083
vn 0.6168 0.7374 0.2751
vn 0.3112 0.9377 0.1543
vn 0.3112 0.9377 0.1543
vn 0.6168 0.7374 0.2751
vn 0.6714 0.7411 -0.0000
vn 0.3419 0.9398 -0.0000
vn 0.3419 0.9398 -0.0000
vn 0.6714 0.7411 -0.0000
vn 0.6168 0.7374 -0.2751
vn 0.3112 0.9377 -0.1543
vn 0.3112 0.9377 -0.1543
vn 0.6168 0.7374 -0.2751
vn 0.4613 0.7272 -0.5083
vn 0.2240 0.9320 -0.2850
vn 0.2240 0.9320 -0.2850
vn 0.4613 0.7272 -0.5083
vn 0.2286 0.7118 -0.6641
vn 0.0936 0.9233 -0.3724
vn 0.0936 0.9233 -0.3724
vn 0.2286 0.7118 -0.6641
vn -0.0459 0.6936 -0.7189
vn -0.0604 0.9132 -0.4031
vn -0.0459 0.6936 -0.7189
vn -0.0247 0.3736 -0.9273
vn -0.3788 0.3501 -0.8567
vn -0.3203 0.6755 -0.6641
vn -0.3203 0.6755 -0.6641
vn -0.3788 0.3501 -0.8567
vn -0.6790 0.3303 -0.6557
vn -0.5531 0.6601 -0.5083
vn -0.5531 0.6601 -0.5083
vn -0.6790 0.3303 -0.6557
vn -0.8795 0.3170 -0.3549
vn -0.7085 0.6498 -0.2751
vn -0.7085 0.6498 -0.2751
vn -0.8795 0.3170 -0.3549
vn -0.9500 0.3124 -0.0000
vn -0.7631 0.6462 -0.0000
vn -0.7631 0.6462 -0.0000
vn -0.9500 0.3124 -0.0000
vn -0.8795 0.3170 0.3549
vn -0.7085 0.6498 0.2751
vn -0.7085 0.6498 0.2751
vn -0.8795 0.3170 0.3549
vn -0.6790 0.3303 0.6557
vn -0.5531 0.6601 0.5083
vn -0.5531 0.6601 0.5083
vn -0.6790 0.3303 0.6557
vn -0.3788 0.3501 0.8567
vn -0.3203 0.6755 0.6641
vn -0.3203 0.6755 0.6641
vn -0.3788 0.3501 0.8567
vn -0.0247 0.3736 0.9273
vn -0.0459 0.6936 0.7189
vn -0.0459 0.6936 0.7189
vn -0.0247 0.3736 0.9273
vn 0.3294 0.3970 0.8567
vn 0.2286 0.7118 0.6641
vn 0.2286 0.7118 0.6641
vn 0.3294 0.3970 0.8567
vn 0.6296 0.4168 0.6557
vn 0.4613 0.7272 0.5083
vn 0.4613 0.7272 0.5083
vn 0.6296 0.4168 0.6557
vn 0.8301 0.4301 0.3549
vn 0.6168 0.7374 0.2751
vn 0.6168 0.7374 0.2751
vn 0.8301 0.4301 0.3549
vn 0.9006 0.4347 -0.0000
vn 0.6714 0.7411 -0.0000
vn 0.6714 0.7411 -0.0000
vn 0.9006 0.4347 -0.0000
vn 0.8301 0.4301 -0.3549
vn 0.6168 0.7374 -0.2751
vn 0.6168 0.7374 -0.2751
vn 0.8301 0.4301 -0.3549
vn 0.6296 0.4168 -0.6557
vn 0.4613 0.7272 -0.5083
vn 0.4613 0.7272 -0.5083
vn 0.6296 0.4168 -0.6557
vn 0.3294 0.3970 -0.8567
vn 0.2286 0.7118 -0.6641
vn 0.2286 0.7118 -0.6641
vn 0.3294 0.3970 -0.8567
vn -0.0247 0.3736 -0.9273
vn -0.0459 0.6936 -0.7189
vn -0.0247 0.3736 -0.9273
vn -0.0000 -0.0000 -1.0000
vn -0.3819 -0.0252 -0.9239
vn -0.3788 0.3501 -0.8567
vn -0.3788 0.3501 -0.8567
vn -0.3819 -0.0252 -0.9239
vn -0.7056 -0.0466 -0.7071
vn -0.6790 0.3303 -0.6557
vn -0.6790 0.3303 -0.6557
vn -0.7056 -0.0466 -0.7071
vn -0.9219 -0.0609 -0.3827
vn -0.8795 0.3170 -0.3549
vn -0.8795 0.3170 -0.3549
vn -0.9219 -0.0609 -0.3827
vn -0.9978 -0.0660 -0.0000
vn -0.9500 0.3124 -0.0000
vn -0.9500 0.3124 -0.0000
vn -0.9978 -0.0660 -0.0000
vn -0.9219 -0.0609 0.3827
vn -0.8795 0.3170 0.3549
vn -0.8795 0.3170 0.3549
vn -0.9219 -0.0609 0.3827
vn -0.7056 -0.0466 0.7071
vn -0.6790 0.3303 0.6557
vn -0.6790 0.3303 0.6557
vn -0.7056 -0.0466 0.7071
vn -0.3819 -0.0252 0.9239
vn -0.3788 0.3501 0.8567
vn -0.3788 0.3501 0.8567
vn -0.3819 -0.0252 0.9239
vn 0.0000 0.0000 1.0000
vn -0.0247 0.3736 0.9273
vn -0.0247 0.3736 0.9273
vn 0.0000 0.0000 1.0000
vn 0.3819 0.0252 0.9239
vn 0.3294 0.3970 0.8567
vn 0.3294 0.3970 0.8567
vn 0.3819 0.0252 0.9239
vn 0.7056 0.0466 0.7071
vn 0.6296 0.4168 0.6557
vn 0.6296 0.4168 0.6557
vn 0.7056 0.0466 0.7071
vn 0.9219 0.0609 0.3827
vn 0.8301 0.4301 0.3549
vn 0.8301 0.4301 0.3549
vn 0.9219 0.0609 0.3827
vn 0.9978 0.0660 -0.0000
vn 0.9006 0.4347 -0.0000
vn 0.9006 0.4347 -0.0000
vn 0.9978 0.0660 -0.0000
vn 0.9219 0.0609 -0.3827
vn 0.8301 0.4301 -0.3549
vn 0.8301 0.4301 -0.3549
vn 0.9219 0.0609 -0.3827
vn 0.7056 0.0466 -0.7071
vn 0.6296 0.4168 -0.6557
vn 0.6296 0.4168 -0.6557
vn 0.7056 0.0466 -0.7071
vn 0.3818 0.0252 -0.9239
vn 0.3294 0.3970 -0.8567
vn 0.3294 0.3970 -0.8567
vn 0.3818 0.0252 -0.9239
vn -0.0000 -0.0000 -1.0000
vn -0.0247 0.3736 -0.9273
vn -0.0000 -0.0000 -1.0000
vn 0.0324 -0.4904 -0.8709
vn -0.3001 -0.5123 -0.8046
vn -0.3819 -0.0252 -0.9239
vn -0.3819 -0.0252 -0.9239
vn -0.3001 -0.5123 -0.8046
vn -0.5821 -0.5310 -0.6158
vn -0.7056 -0.0466 -0.7071
vn -0.7056 -0.0466 -0.7071
vn -0.5821 -0.5310 -0.6158
vn -0.7705 -0.5434 -0.3333
vn -0.9219 -0.0609 -0.3827
vn -0.9219 -0.0609 -0.3827
vn -0.7705 -0.5434 -0.3333
vn -0.8366 -0.5478 -0.0000
vn -0.9978 -0.0660 -0.0000
vn -0.9978 -0.0660 -0.0000
vn -0.8366 -0.5478 -0.0000
vn -0.7705 -0.5434 0.3333
vn -0.9219 -0.0609 0.3827
vn -0.9219 -0.0609 0.3827
vn -0.7705 -0.5434 0.3333
vn -0.5821 -0.5310 0.6158
vn -0.7056 -0.0466 0.7071
vn -0.7056 -0.0466 0.7071
vn -0.5821 -0.5310 0.6158
vn -0.3001 -0.5123 0.8046
vn -0.3819 -0.0252 0.9239
vn -0.3819 -0.0252 0.9239
vn -0.3001 -0.5123 0.8046
vn 0.0324 -0.4904 0.8709
vn 0.0000 0.0000 1.0000
vn 0.0000 0.0000 1.0000
vn 0.0324 -0.4904 0.8709
vn 0.3650 -0.4684 0.8046
vn 0.3819 0.0252 0.9239
vn 0.3819 0.0252 0.9239
vn 0.3650 -0.4684 0.8046
vn 0.6469 -0.4497 0.6158
vn 0.7056 0.0466 0.7071
vn 0.7056 0.0466 0.7071
vn 0.6469 -0.4497 0.6158
vn 0.8353 -0.4373 0.3333
vn 0.9219 0.0609 0.3827
vn 0.9219 0.0609 0.3827
vn 0.8353 -0.4373 0.3333
vn 0.9014 -0.4329 -0.0000
vn 0.9978 0.0660 -0.0000
vn 0.9978 0.0660 -0.0000
vn 0.9014 -0.4329 -0.0000
vn 0.8353 -0.4373 -0.3333
vn 0.9219 0.0609 -0.3827
vn 0.9219 0.0609 -0.3827
vn 0.8353 -0.4373 -0.3333
vn 0.6469 -0.4497 -0.6158
vn 0.7056 0.0466 -0.7071
vn 0.7056 0.0466 -0.7071
vn 0.6469 -0.4497 -0.6158
vn 0.3650 -0.4684 -0.8046
vn 0.3818 0.0252 -0.9239
vn 0.3818 0.0252 -0.9239
vn 0.3650 -0.4684 -0.8046
vn 0.0324 -0.4904 -0.8709
vn -0.0000 -0.0000 -1.0000
vn 0.0324 -0.4904 -0.8709
vn 0.0505 -0.7632 -0.6441
vn -0.1955 -0.7795 -0.5951
vn -0.3001 -0.5123 -0.8046
vn -0.3001 -0.5123 -0.8046
vn -0.1955 -0.7795 -0.5951
vn -0.4040 -0.7933 -0.4555
vn -0.5821 -0.5310 -0.6158
vn -0.5821 -0.5310 -0.6158
vn -0.4040 -0.7933 -0.4555
vn -0.5434 -0.8025 -0.2465
vn -0.7705 -0.5434 -0.3333
vn -0.7705 -0.5434 -0.3333
vn -0.5434 -0.8025 -0.2465
vn -0.5923 -0.8057 -0.0000
vn -0.8366 -0.5478 -0.0000
vn -0.8366 -0.5478 -0.0000
vn -0.5923 -0.8057 -0.0000
vn -0.5434 -0.8025 0.2465
vn -0.7705 -0.5434 0.3333
vn -0.7705 -0.5434 0.3333
vn -0.5434 -0.8025 0.2465
vn -0.4040 -0.7933 0.4555
vn -0.5821 -0.5310 0.6158
vn -0.5821 -0.5310 0.6158
vn -0.4040 -0.7933 0.4555
vn -0.1955 -0.7795 0.5951
vn -0.3001 -0.5123 0.8046
vn -0.3001 -0.5123 0.8046
vn -0.1955 -0.7795 0.5951
vn 0.0505 -0.7632 0.6441
vn 0.0324 -0.4904 0.8709
vn 0.0324 -0.4904 0.8709
vn 0.0505 -0.7632 0.6441
vn 0.2964 -0.7470 0.5951
vn 0.3650 -0.4684 0.8046
vn 0.3650 -0.4684 0.8046
vn 0.2964 -0.7470 0.5951
vn 0.5049 -0.7332 0.4555
vn 0.6469 -0.4497 0.6158
vn 0.6469 -0.4497 0.6158
vn 0.5049 -0.7332 0.4555
vn 0.6443 -0.7240 0.2465
vn 0.8353 -0.4373 0.3333
vn 0.8353 -0.4373 0.3333
vn 0.6443 -0.7240 0.2465
vn 0.6932 -0.7208 -0.0000
vn 0.9014 -0.4329 -0.0000
vn 0.9014 -0.4329 -0.0000
vn 0.6932 -0.7208 -0.0000
vn 0.6443 -0.7240 -0.2465
vn 0.8353 -0.4373 -0.3333
vn 0.8353 -0.4373 -0.3333
vn 0.6443 -0.7240 -0.2465
vn 0.5049 -0.7332 -0.4555
vn 0.6469 -0.4497 -0.6158
vn 0.6469 -0.4497 -0.6158
vn 0.5049 -0.7332 -0.4555
vn 0.2964 -0.7470 -0.5951
vn 0.3650 -0.4684 -0.8046
vn 0.3650 -0.4684 -0.8046
vn 0.2964 -0.7470 -0.5951
vn 0.0505 -0.7632 -0.6441
vn 0.0324 -0.4904 -0.8709
vn 0.9978 0.0660 -0.0000
vn 0.7056 0.0466 -0.7071
vn 0.7056 0.0466 -0.7071
vn 0.9978 0.0660 -0.0000
vn 0.7056 0.0466 -0.7071
vn -0.0000 -0.0000 -1.0000
vn 0.0000 0.0000 -1.0000
vn 0.7056 0.0466 -0.7071
vn -0.0000 -0.0000 -1.0000
vn -0.7056 -0.0466 -0.7071
vn -0.7056 -0.0466 -0.7071
vn 0.0000 0.0000 -1.0000
vn -0.7056 -0.0466 -0.7071
vn -0.9978 -0.0660 0.0000
vn -0.9978 -0.0660 0.0000
vn -0.7056 -0.0466 -0.7071
vn -0.9978 -0.0660 0.0000
vn -0.7056 -0.0466 0.7071
vn -0.7056 -0.0466 0.7071
vn -0.9978 -0.0660 0.0000
vn -0.7056 -0.0466 0.7071
vn -0.0000 -0.0000 1.0000
vn -0.0000 -0.0000 1.0000
vn -0.7056 -0.0466 0.7071
vn -0.0000 -0.0000 1.0000
vn 0.7056 0.0466 0.7071
vn 0.7056 0.0466 0.7071
vn -0.0000 -0.0000 1.0000
vn 0.7056 0.0466 0.7071
vn 0.9978 0.0660 -0.0000
vn 0.9978 0.0660 -0.0000
vn 0.7056 0.0466 0.7071
vn 0.9978 0.0660 -0.0000
vn 0.7056 0.0466 -0.7071
vn 0.7056 0.0466 -0.7071
vn 0.9978 0.0660 -0.0000
vn 0.7056 0.0466 -0.7071
vn 0.0000 0.0000 -1.0000
vn 0.0000 0.0000 -1.0000
vn 0.7056 0.0466 -0.7071
vn 0.0000 0.0000 -1.0000
vn -0.7056 -0.0466 -0.7071
vn -0.7056 -0.0466 -0.7071
vn 0.0000 0.0000 -1.0000
vn -0.7056 -0.0466 -0.7071
vn -0.9978 -0.0660 0.0000
vn -0.9978 -0.0660 0.0000
vn -0.7056 -0.0466 -0.7071
vn -0.9978 -0.0660 0.0000
vn -0.7056 -0.0466 0.7071
vn -0.7056 -0.0466 0.7071
vn -0.9978 -0.0660 0.0000
vn -0.7056 -0.0466 0.7071
vn -0.0000 -0.0000 1.0000
vn -0.0000 -0.0000 1.0000
vn -0.7056 -0.0466 0.7071
vn -0.0000 -0.0000 1.0000
vn 0.7056 0.0466 0.7071
vn 0.7056 0.0466 0.7071
vn -0.0000 -0.0000 1.0000
vn 0.7056 0.0466 0.7071
vn 0.9978 0.0660 -0.0000
vn 0.9978 0.0660 -0.0000
vn 0.7056 0.0466 0.7071
vn 0.9978 0.0660 -0.0000
vn 0.7056 0.0466 -0.7071
vn 0.7056 0.0466 -0.7071
vn 0.9978 0.0660 -0.0000
vn 0.7056 0.0466 -0.7071
vn 0.0000 0.0000 -1.0000
vn -0.0000 -0.0000 -1.0000
vn 0.7056 0.0466 -0.7071
vn 0.0000 0.0000 -1.0000
vn -0.7056 -0.0466 -0.7071
vn -0.7056 -0.0466 -0.7071
vn -0.0000 -0.0000 -1.0000
vn -0.7056 -0.0466 -0.7071
vn -0.9978 -0.0660 0.0000
vn -0.9978 -0.0660 0.0000
vn -0.7056 -0.0466 -0.7071
vn -0.9978 -0.0660 0.0000
vn -0.7056 -0.0466 0.7071
vn -0.7056 -0.0466 0.7071
vn -0.9978 -0.0660 0.0000
vn -0.7056 -0.0466 0.7071
vn -0.0000 -0.0000 1.0000
vn -0.0000 -0.0000 1.0000
vn -0.7056 -0.0466 0.7071
vn -0.0000 -0.0000 1.0000
vn 0.7056 0.0466 0.7071
vn 0.7056 0.0466 0.7071
vn -0.0000 -0.0000 1.0000
vn 0.7056 0.0466 0.7071
vn 0.9978 0.0660 -0.0000
vn 0.9978 0.0660 -0.0000
vn 0.7056 0.0466 0.7071
vn 0.0660 -0.9978 -0.0000
vn 0.0660 -0.9978 -0.0000
vn 0.0660 -0.9978 -0.0000
vn 0.0660 -0.9978 -0.0000
vn 0.0660 -0.9978 -0.0000
vn 0.0660 -0.9978 -0.0000
vn 0.0660 -0.9978 -0.0000
vn 0.0660 -0.9978 -0.0000
vn 0.0660 -0.9978 -0.0000
vn 0.0660 -0.9978 -0.0000
vn 0.0660 -0.9978 -0.0000
vn 0.0660 -0.9978 -0.0000
vn 0.0660 -0.9978 -0.0000
vn 0.0660 -0.9978 -0.0000
vn 0.0660 -0.9978 -0.0000
vn 0.0660 -0.9978 -0.0000
# 464 vertex normals

vt 0.1263 0.3589 0.0000
vt 0.1276 0.3618 0.0000
vt 0.1264 0.3621 0.0000
vt 0.1252 0.3619 0.0000
vt 0.1241 0.3612 0.0000
vt 0.1234 0.3602 0.0000
vt 0.1231 0.3590 0.0000
vt 0.1233 0.3578 0.0000
vt 0.1240 0.3567 0.0000
vt 0.1250 0.3560 0.0000
vt 0.1262 0.3557 0.0000
vt 0.1274 0.3559 0.0000
vt 0.1285 0.3565 0.0000
vt 0.1292 0.3576 0.0000
vt 0.1295 0.3588 0.0000
vt 0.1293 0.3600 0.0000
vt 0.1286 0.3611 0.0000
vt 0.1264 0.3654 0.0000
vt 0.1239 0.3650 0.0000
vt 0.1218 0.3636 0.0000
vt 0.1203 0.3615 0.0000
vt 0.1197 0.3590 0.0000
vt 0.1202 0.3565 0.0000
vt 0.1216 0.3543 0.0000
vt 0.1237 0.3529 0.0000
vt 0.1262 0.3523 0.0000
vt 0.1287 0.3528 0.0000
vt 0.1309 0.3541 0.0000
vt 0.1323 0.3563 0.0000
vt 0.1329 0.3588 0.0000
vt 0.1324 0.3613 0.0000
vt 0.1310 0.3634 0.0000
vt 0.1289 0.3649 0.0000
vt 0.1264 0.3694 0.0000
vt 0.1223 0.3687 0.0000
vt 0.1189 0.3664 0.0000
vt 0.1166 0.3630 0.0000
vt 0.1157 0.3589 0.0000
vt 0.1165 0.3549 0.0000
vt 0.1188 0.3514 0.0000
vt 0.1222 0.3491 0.0000
vt 0.1263 0.3483 0.0000
vt 0.1303 0.3491 0.0000
vt 0.1337 0.3514 0.0000
vt 0.1360 0.3548 0.0000
vt 0.1369 0.3588 0.0000
vt 0.1361 0.3629 0.0000
vt 0.1338 0.3663 0.0000
vt 0.1304 0.3686 0.0000
vt 0.1262 0.3748 0.0000
vt 0.1201 0.3736 0.0000
vt 0.1150 0.3701 0.0000
vt 0.1115 0.3649 0.0000
vt 0.1104 0.3588 0.0000
vt 0.1116 0.3527 0.0000
vt 0.1151 0.3475 0.0000
vt 0.1203 0.3441 0.0000
vt 0.1264 0.3429 0.0000
vt 0.1325 0.3442 0.0000
vt 0.1377 0.3477 0.0000
vt 0.1411 0.3529 0.0000
vt 0.1423 0.3590 0.0000
vt 0.1410 0.3651 0.0000
vt 0.1375 0.3702 0.0000
vt 0.1323 0.3737 0.0000
vt 0.1260 0.3834 0.0000
vt 0.1166 0.3814 0.0000
vt 0.1087 0.3760 0.0000
vt 0.1035 0.3679 0.0000
vt 0.1018 0.3585 0.0000
vt 0.1038 0.3492 0.0000
vt 0.1092 0.3413 0.0000
vt 0.1173 0.3361 0.0000
vt 0.1267 0.3344 0.0000
vt 0.1360 0.3364 0.0000
vt 0.1439 0.3418 0.0000
vt 0.1491 0.3498 0.0000
vt 0.1508 0.3592 0.0000
vt 0.1488 0.3686 0.0000
vt 0.1434 0.3765 0.0000
vt 0.1354 0.3817 0.0000
vt 0.1263 0.4705 0.0000
vt 0.0836 0.4620 0.0000
vt 0.0474 0.4378 0.0000
vt 0.0232 0.4016 0.0000
vt 0.0147 0.3589 0.0000
vt 0.0232 0.3162 0.0000
vt 0.0474 0.2799 0.0000
vt 0.0836 0.2557 0.0000
vt 0.1263 0.2472 0.0000
vt 0.1690 0.2557 0.0000
vt 0.2053 0.2799 0.0000
vt 0.2295 0.3162 0.0000
vt 0.2380 0.3589 0.0000
vt 0.2295 0.4016 0.0000
vt 0.2053 0.4378 0.0000
vt 0.1690 0.4620 0.0000
vt 0.4266 0.2041 0.0000
vt 0.4499 0.2046 0.0000
vt 0.4493 0.3678 0.0000
vt 0.4261 0.3673 0.0000
vt 0.4731 0.2051 0.0000
vt 0.4725 0.3683 0.0000
vt 0.3104 0.2017 0.0000
vt 0.3098 0.3650 0.0000
vt 0.3337 0.2022 0.0000
vt 0.3331 0.3654 0.0000
vt 0.3569 0.2027 0.0000
vt 0.3563 0.3659 0.0000
vt 0.3801 0.2032 0.0000
vt 0.3796 0.3664 0.0000
vt 0.4034 0.2036 0.0000
vt 0.4028 0.3669 0.0000
vt 0.4487 0.5310 0.0000
vt 0.4255 0.5306 0.0000
vt 0.4720 0.5315 0.0000
vt 0.3092 0.5282 0.0000
vt 0.3325 0.5287 0.0000
vt 0.3557 0.5291 0.0000
vt 0.3790 0.5296 0.0000
vt 0.4022 0.5301 0.0000
vt 0.4481 0.6943 0.0000
vt 0.4249 0.6938 0.0000
vt 0.4714 0.6947 0.0000
vt 0.3087 0.6914 0.0000
vt 0.3319 0.6919 0.0000
vt 0.3552 0.6924 0.0000
vt 0.3784 0.6928 0.0000
vt 0.4016 0.6933 0.0000
vt 0.3106 0.2093 0.0000
vt 0.3375 0.2093 0.0000
vt 0.3296 0.1903 0.0000
vt 0.3106 0.1824 0.0000
vt 0.2872 0.2013 0.0000
vt 0.2866 0.3645 0.0000
vt 0.2916 0.1903 0.0000
vt 0.2837 0.2093 0.0000
vt 0.2916 0.2283 0.0000
vt 0.3106 0.2362 0.0000
vt 0.3296 0.2283 0.0000
vt 0.2860 0.5277 0.0000
vt 0.2854 0.6909 0.0000
# 142 texture coords

g Auricular2
usemtl Auricular2
s 1
f 1/1/1 17/2/2 2/3/3 3/4/4 
f 1/1/5 3/4/6 4/5/7 5/6/8 
f 1/1/9 5/6/10 6/7/11 7/8/12 
f 1/1/13 7/8/14 8/9/15 9/10/16 
f 1/1/17 9/10/18 10/11/19 11/12/20 
f 1/1/21 11/12/22 12/13/23 13/14/24 
f 1/1/25 13/14/26 14/15/27 15/16/28 
f 1/1/29 15/16/30 16/17/31 17/2/32 
f 2/3/33 18/18/34 19/19/35 3/4/36 
f 3/4/37 19/19/38 20/20/39 4/5/40 
f 4/5/41 20/20/42 21/21/43 5/6/44 
f 5/6/45 21/21/46 22/22/47 6/7/48 
f 6/7/49 22/22/50 23/23/51 7/8/52 
f 7/8/53 23/23/54 24/24/55 8/9/56 
f 8/9/57 24/24/58 25/25/59 9/10/60 
f 9/10/61 25/25/62 26/26/63 10/11/64 
f 10/11/65 26/26/66 27/27/67 11/12/68 
f 11/12/69 27/27/70 28/28/71 12/13/72 
f 12/13/73 28/28/74 29/29/75 13/14/76 
f 13/14/77 29/29/78 30/30/79 14/15/80 
f 14/15/81 30/30/82 31/31/83 15/16/84 
f 15/16/85 31/31/86 32/32/87 16/17/88 
f 16/17/89 32/32/90 33/33/91 17/2/92 
f 17/2/93 33/33/94 18/18/95 2/3/96 
f 18/18/97 34/34/98 35/35/99 19/19/100 
f 19/19/101 35/35/102 36/36/103 20/20/104 
f 20/20/105 36/36/106 37/37/107 21/21/108 
f 21/21/109 37/37/110 38/38/111 22/22/112 
f 22/22/113 38/38/114 39/39/115 23/23/116 
f 23/23/117 39/39/118 40/40/119 24/24/120 
f 24/24/121 40/40/122 41/41/123 25/25/124 
f 25/25/125 41/41/126 42/42/127 26/26/128 
f 26/26/129 42/42/130 43/43/131 27/27/132 
f 27/27/133 43/43/134 44/44/135 28/28/136 
f 28/28/137 44/44/138 45/45/139 29/29/140 
f 29/29/141 45/45/142 46/46/143 30/30/144 
f 30/30/145 46/46/146 47/47/147 31/31/148 
f 31/31/149 47/47/150 48/48/151 32/32/152 
f 32/32/153 48/48/154 49/49/155 33/33/156 
f 33/33/157 49/49/158 34/34/159 18/18/160 
f 34/34/161 50/50/162 51/51/163 35/35/164 
f 35/35/165 51/51/166 52/52/167 36/36/168 
f 36/36/169 52/52/170 53/53/171 37/37/172 
f 37/37/173 53/53/174 54/54/175 38/38/176 
f 38/38/177 54/54/178 55/55/179 39/39/180 
f 39/39/181 55/55/182 56/56/183 40/40/184 
f 40/40/185 56/56/186 57/57/187 41/41/188 
f 41/41/189 57/57/190 58/58/191 42/42/192 
f 42/42/193 58/58/194 59/59/195 43/43/196 
f 43/43/197 59/59/198 60/60/199 44/44/200 
f 44/44/201 60/60/202 61/61/203 45/45/204 
f 45/45/205 61/61/206 62/62/207 46/46/208 
f 46/46/209 62/62/210 63/63/211 47/47/212 
f 47/47/213 63/63/214 64/64/215 48/48/216 
f 48/48/217 64/64/218 65/65/219 49/49/220 
f 49/49/221 65/65/222 50/50/223 34/34/224 
f 50/50/225 66/66/226 67/67/227 51/51/228 
f 51/51/229 67/67/230 68/68/231 52/52/232 
f 52/52/233 68/68/234 69/69/235 53/53/236 
f 53/53/237 69/69/238 70/70/239 54/54/240 
f 54/54/241 70/70/242 71/71/243 55/55/244 
f 55/55/245 71/71/246 72/72/247 56/56/248 
f 56/56/249 72/72/250 73/73/251 57/57/252 
f 57/57/253 73/73/254 74/74/255 58/58/256 
f 58/58/257 74/74/258 75/75/259 59/59/260 
f 59/59/261 75/75/262 76/76/263 60/60/264 
f 60/60/265 76/76/266 77/77/267 61/61/268 
f 61/61/269 77/77/270 78/78/271 62/62/272 
f 62/62/273 78/78/274 79/79/275 63/63/276 
f 63/63/277 79/79/278 80/80/279 64/64/280 
f 64/64/281 80/80/282 81/81/283 65/65/284 
f 65/65/285 81/81/286 66/66/287 50/50/288 
f 66/66/289 82/82/290 83/83/291 67/67/292 
f 67/67/293 83/83/294 84/84/295 68/68/296 
f 68/68/297 84/84/298 85/85/299 69/69/300 
f 69/69/301 85/85/302 86/86/303 70/70/304 
f 70/70/305 86/86/306 87/87/307 71/71/308 
f 71/71/309 87/87/310 88/88/311 72/72/312 
f 72/72/313 88/88/314 89/89/315 73/73/316 
f 73/73/317 89/89/318 90/90/319 74/74/320 
f 74/74/321 90/90/322 91/91/323 75/75/324 
f 75/75/325 91/91/326 92/92/327 76/76/328 
f 76/76/329 92/92/330 93/93/331 77/77/332 
f 77/77/333 93/93/334 94/94/335 78/78/336 
f 78/78/337 94/94/338 95/95/339 79/79/340 
f 79/79/341 95/95/342 96/96/343 80/80/344 
f 80/80/345 96/96/346 97/97/347 81/81/348 
f 81/81/349 97/97/350 82/82/351 66/66/352 
s 8
f 98/98/353 99/99/354 107/100/355 106/101/356 
f 99/99/357 100/102/358 108/103/359 107/100/360 
f 100/134/361 101/104/362 109/105/363 108/135/364 
f 101/104/365 102/106/366 110/107/367 109/105/368 
f 102/106/369 103/108/370 111/109/371 110/107/372 
f 103/108/373 104/110/374 112/111/375 111/109/376 
f 104/110/377 105/112/378 113/113/379 112/111/380 
f 105/112/381 98/98/382 106/101/383 113/113/384 
f 106/101/385 107/100/386 115/114/387 114/115/388 
f 107/100/389 108/103/390 116/116/391 115/114/392 
f 108/135/393 109/105/394 117/117/395 116/141/396 
f 109/105/397 110/107/398 118/118/399 117/117/400 
f 110/107/401 111/109/402 119/119/403 118/118/404 
f 111/109/405 112/111/406 120/120/407 119/119/408 
f 112/111/409 113/113/410 121/121/411 120/120/412 
f 113/113/413 106/101/414 114/115/415 121/121/416 
f 114/115/417 115/114/418 123/122/419 122/123/420 
f 115/114/421 116/116/422 124/124/423 123/122/424 
f 116/141/425 117/117/426 125/125/427 124/142/428 
f 117/117/429 118/118/430 126/126/431 125/125/432 
f 118/118/433 119/119/434 127/127/435 126/126/436 
f 119/119/437 120/120/438 128/128/439 127/127/440 
f 120/120/441 121/121/442 129/129/443 128/128/444 
f 121/121/445 114/115/446 122/123/447 129/129/448 
s 1
f 105/140/449 104/139/450 130/130/451 98/131/452 
f 104/139/453 103/138/454 102/137/455 130/130/456 
f 102/137/457 101/136/458 100/133/459 130/130/460 
f 130/130/461 100/133/462 99/132/463 98/131/464 
# 116 polygons

