# 3ds Max Wavefront OBJ Exporter v0.97b - (c)2007 guruware
# File Created: 23.11.2018 11:03:04

mtllib Marcador_2.mtl

#
# object Marcador2
#

v  -0.0000 12.2259 7.1394
v  -0.0000 10.7749 7.8694
v  -0.0000 9.6638 7.4678
v  3.3195 10.9976 7.7574
v  2.1711 9.9716 8.2736
v  1.5968 9.0729 7.7651
v  4.6946 8.0322 9.2494
v  3.0703 8.0322 9.2494
v  2.2582 7.6465 8.4828
v  3.3195 5.0668 10.7413
v  2.1711 6.0927 10.2252
v  1.5968 6.2200 9.2005
v  -0.0000 3.8385 11.3594
v  -0.0000 5.2894 10.6293
v  -0.0000 5.6292 9.4977
v  -3.3196 5.0668 10.7413
v  -2.1711 6.0927 10.2252
v  -1.5968 6.2200 9.2005
v  -4.6946 8.0322 9.2494
v  -3.0704 8.0322 9.2494
v  -2.2583 7.6465 8.4828
v  -3.3196 10.9976 7.7574
v  -2.1711 9.9716 8.2736
v  -1.5968 9.0729 7.7651
v  -0.0000 10.4747 9.5227
v  -1.4560 9.9359 9.7938
v  -2.0591 8.6353 10.4481
v  -1.4560 7.3347 11.1025
v  -0.0000 6.7960 11.3736
v  1.4559 7.3347 11.1025
v  2.0590 8.6353 10.4481
v  1.4559 9.9359 9.7938
v  -0.0000 8.6353 10.4481
v  -0.0000 9.4934 7.5724
v  -1.4560 8.9547 7.8435
v  -2.0591 7.6541 8.4979
v  -1.4560 6.3534 9.1522
v  -0.0000 5.8147 9.4233
v  1.4559 6.3534 9.1522
v  2.0590 7.6541 8.4979
v  1.4559 8.9547 7.8435
v  -0.0000 12.3544 5.9801
v  3.7692 10.9597 6.6818
v  5.3304 7.5927 8.3759
v  3.7692 4.2256 10.0700
v  -0.0000 2.8310 10.7717
v  -3.7692 4.2256 10.0700
v  -5.3305 7.5927 8.3759
v  -3.7692 10.9597 6.6818
# 49 vertices

vn 0.0000 0.4495 0.8933
vn 0.0000 0.0599 0.9982
vn -0.2794 0.1633 0.9462
vn -0.0000 0.4495 0.8933
vn 0.0000 0.0599 0.9982
vn 0.0000 -0.5489 0.8359
vn -0.6124 -0.3223 0.7219
vn -0.2794 0.1633 0.9462
vn -0.0000 0.4495 0.8933
vn -0.2794 0.1633 0.9462
vn -0.3951 0.4129 0.8206
vn -0.0000 0.4495 0.8933
vn -0.2794 0.1633 0.9462
vn -0.6124 -0.3223 0.7219
vn -0.8660 0.2247 0.4467
vn -0.3951 0.4129 0.8206
vn -0.0000 0.4495 0.8933
vn -0.3951 0.4129 0.8206
vn -0.2794 0.6625 0.6950
vn -0.0000 0.4495 0.8933
vn -0.3951 0.4129 0.8206
vn -0.8660 0.2247 0.4467
vn -0.6124 0.7718 0.1714
vn -0.2794 0.6625 0.6950
vn -0.0000 0.4495 0.8933
vn -0.2794 0.6625 0.6950
vn -0.0000 0.7658 0.6430
vn 0.0000 0.4495 0.8933
vn -0.2794 0.6625 0.6950
vn -0.6124 0.7718 0.1714
vn 0.0000 0.9984 0.0574
vn -0.0000 0.7658 0.6430
vn 0.0000 0.4495 0.8933
vn -0.0000 0.7658 0.6430
vn 0.2794 0.6625 0.6950
vn 0.0000 0.4495 0.8933
vn -0.0000 0.7658 0.6430
vn 0.0000 0.9984 0.0574
vn 0.6124 0.7718 0.1714
vn 0.2794 0.6625 0.6950
vn 0.0000 0.4495 0.8933
vn 0.2794 0.6625 0.6950
vn 0.3951 0.4129 0.8206
vn 0.0000 0.4495 0.8933
vn 0.2794 0.6625 0.6950
vn 0.6124 0.7718 0.1714
vn 0.8660 0.2247 0.4467
vn 0.3951 0.4129 0.8206
vn 0.0000 0.4495 0.8933
vn 0.3951 0.4129 0.8206
vn 0.2794 0.1633 0.9462
vn 0.0000 0.4495 0.8933
vn 0.3951 0.4129 0.8206
vn 0.8660 0.2247 0.4467
vn 0.6124 -0.3223 0.7219
vn 0.2794 0.1633 0.9462
vn 0.0000 0.4495 0.8933
vn 0.2794 0.1633 0.9462
vn 0.0000 0.0599 0.9982
vn 0.0000 0.4495 0.8933
vn 0.2794 0.1633 0.9462
vn 0.6124 -0.3223 0.7219
vn 0.0000 -0.5489 0.8359
vn 0.0000 0.0599 0.9982
vn -0.0000 0.4495 0.8933
vn -0.0000 0.4495 0.8933
vn -0.0000 0.4495 0.8933
vn -0.0000 0.4495 0.8933
vn 0.0000 0.4495 0.8933
vn 0.0000 0.4495 0.8933
vn 0.0000 0.4495 0.8933
vn 0.0000 0.4495 0.8933
vn -0.0000 0.4495 0.8933
vn -0.0000 0.4495 0.8933
vn -0.0000 0.4495 0.8933
vn -0.0000 0.4495 0.8933
vn 0.0000 0.4495 0.8933
vn 0.0000 0.4495 0.8933
vn 0.0000 0.4495 0.8933
vn 0.0000 0.4495 0.8933
vn -0.3827 0.8253 -0.4152
vn -0.3827 0.8253 -0.4152
vn -0.3827 0.8253 -0.4152
vn -0.3827 0.8253 -0.4152
vn -0.9239 0.3419 -0.1720
vn -0.9239 0.3419 -0.1720
vn -0.9239 0.3419 -0.1720
vn -0.9239 0.3419 -0.1720
vn -0.9239 -0.3419 0.1720
vn -0.9239 -0.3419 0.1720
vn -0.9239 -0.3419 0.1720
vn -0.9239 -0.3419 0.1720
vn -0.3827 -0.8253 0.4152
vn -0.3827 -0.8253 0.4152
vn -0.3827 -0.8253 0.4152
vn -0.3827 -0.8253 0.4152
vn 0.3827 -0.8253 0.4152
vn 0.3827 -0.8253 0.4152
vn 0.3827 -0.8253 0.4152
vn 0.3827 -0.8253 0.4152
vn 0.9239 -0.3419 0.1720
vn 0.9239 -0.3419 0.1720
vn 0.9239 -0.3419 0.1720
vn 0.9239 -0.3419 0.1720
vn 0.9239 0.3419 -0.1720
vn 0.9239 0.3419 -0.1720
vn 0.9239 0.3419 -0.1720
vn 0.9239 0.3419 -0.1720
vn 0.3827 0.8253 -0.4152
vn 0.3827 0.8253 -0.4152
vn 0.3827 0.8253 -0.4152
vn 0.3827 0.8253 -0.4152
vn 0.3593 0.9296 -0.0824
vn 0.3593 0.9296 -0.0824
vn 0.3593 0.9296 -0.0824
vn 0.3593 0.9296 -0.0824
vn 0.8674 0.4757 0.1459
vn 0.8674 0.4757 0.1459
vn 0.8674 0.4757 0.1459
vn 0.8674 0.4757 0.1459
vn 0.8674 -0.1663 0.4689
vn 0.8674 -0.1663 0.4689
vn 0.8674 -0.1663 0.4689
vn 0.8674 -0.1663 0.4689
vn 0.3593 -0.6202 0.6973
vn 0.3593 -0.6202 0.6973
vn 0.3593 -0.6202 0.6973
vn 0.3593 -0.6202 0.6973
vn -0.3593 -0.6202 0.6973
vn -0.3593 -0.6202 0.6973
vn -0.3593 -0.6202 0.6973
vn -0.3593 -0.6202 0.6973
vn -0.8674 -0.1663 0.4689
vn -0.8674 -0.1663 0.4689
vn -0.8674 -0.1663 0.4689
vn -0.8674 -0.1663 0.4689
vn -0.8674 0.4757 0.1459
vn -0.8674 0.4757 0.1459
vn -0.8674 0.4757 0.1459
vn -0.8674 0.4757 0.1459
vn -0.3593 0.9296 -0.0824
vn -0.3593 0.9296 -0.0824
vn -0.3593 0.9296 -0.0824
vn -0.3593 0.9296 -0.0824
# 144 vertex normals

vt 0.6243 0.4045 0.0000
vt 0.6243 0.3689 0.0000
vt 0.6719 0.3492 0.0000
vt 0.6971 0.3744 0.0000
vt 0.6243 0.3502 0.0000
vt 0.6593 0.3358 0.0000
vt 0.6916 0.3017 0.0000
vt 0.7272 0.3017 0.0000
vt 0.6738 0.3008 0.0000
vt 0.6719 0.2542 0.0000
vt 0.6971 0.2290 0.0000
vt 0.6593 0.2658 0.0000
vt 0.6243 0.2345 0.0000
vt 0.6243 0.1989 0.0000
vt 0.6243 0.2514 0.0000
vt 0.5768 0.2542 0.0000
vt 0.5516 0.2290 0.0000
vt 0.5893 0.2658 0.0000
vt 0.5570 0.3017 0.0000
vt 0.5214 0.3017 0.0000
vt 0.5748 0.3008 0.0000
vt 0.5768 0.3492 0.0000
vt 0.5516 0.3744 0.0000
vt 0.5893 0.3358 0.0000
vt 0.0660 0.1023 0.0000
vt 0.0660 0.0545 0.0000
vt 0.0994 0.0685 0.0000
vt 0.1132 0.1023 0.0000
vt 0.0187 0.1023 0.0000
vt 0.0326 0.0685 0.0000
vt 0.0994 0.1360 0.0000
vt 0.0660 0.1500 0.0000
vt 0.0326 0.1360 0.0000
vt 0.0660 0.1557 0.0000
vt 0.0289 0.1401 0.0000
vt 0.0135 0.1026 0.0000
vt 0.0289 0.0651 0.0000
vt 0.0660 0.0495 0.0000
vt 0.1031 0.0651 0.0000
vt 0.1184 0.1026 0.0000
vt 0.1031 0.1401 0.0000
vt 0.7070 0.3885 0.0000
vt 0.6243 0.4227 0.0000
vt 0.7412 0.3060 0.0000
vt 0.7070 0.2235 0.0000
vt 0.6243 0.1893 0.0000
vt 0.5417 0.2235 0.0000
vt 0.5075 0.3060 0.0000
vt 0.5417 0.3885 0.0000
# 49 texture coords

g Marcador2
usemtl Marcador2
s 1
f 1/1/1 2/2/2 5/3/3 4/4/4 
f 2/2/5 3/5/6 6/6/7 5/3/8 
f 4/4/9 5/3/10 8/7/11 7/8/12 
f 5/3/13 6/6/14 9/9/15 8/7/16 
f 7/8/17 8/7/18 11/10/19 10/11/20 
f 8/7/21 9/9/22 12/12/23 11/10/24 
f 10/11/25 11/10/26 14/13/27 13/14/28 
f 11/10/29 12/12/30 15/15/31 14/13/32 
f 13/14/33 14/13/34 17/16/35 16/17/36 
f 14/13/37 15/15/38 18/18/39 17/16/40 
f 16/17/41 17/16/42 20/19/43 19/20/44 
f 17/16/45 18/18/46 21/21/47 20/19/48 
f 19/20/49 20/19/50 23/22/51 22/23/52 
f 20/19/53 21/21/54 24/24/55 23/22/56 
f 22/23/57 23/22/58 2/2/59 1/1/60 
f 23/22/61 24/24/62 3/5/63 2/2/64 
s off
f 33/25/65 29/26/66 30/27/67 31/28/68 
f 27/29/69 28/30/70 29/26/71 33/25/72 
f 31/28/73 32/31/74 25/32/75 33/25/76 
f 33/25/77 25/32/78 26/33/79 27/29/80 
f 26/33/81 25/32/82 34/34/83 35/35/84 
f 27/29/85 26/33/86 35/35/87 36/36/88 
f 28/30/89 27/29/90 36/36/91 37/37/92 
f 29/26/93 28/30/94 37/37/95 38/38/96 
f 30/27/97 29/26/98 38/38/99 39/39/100 
f 31/28/101 30/27/102 39/39/103 40/40/104 
f 32/31/105 31/28/106 40/40/107 41/41/108 
f 25/32/109 32/31/110 41/41/111 34/34/112 
f 1/1/113 4/4/114 43/42/115 42/43/116 
f 4/4/117 7/8/118 44/44/119 43/42/120 
f 7/8/121 10/11/122 45/45/123 44/44/124 
f 10/11/125 13/14/126 46/46/127 45/45/128 
f 13/14/129 16/17/130 47/47/131 46/46/132 
f 16/17/133 19/20/134 48/48/135 47/47/136 
f 19/20/137 22/23/138 49/49/139 48/48/140 
f 22/23/141 1/1/142 42/43/143 49/49/144 
# 36 polygons

