# 3ds Max Wavefront OBJ Exporter v0.97b - (c)2007 guruware
# File Created: 23.11.2018 16:04:08

mtllib Cpu.mtl

#
# object Cpu
#

v  -15.8325 -0.3634 -2.3126
v  -10.6745 -0.3634 -2.3126
v  -4.7679 -0.3634 -2.3126
v  1.4382 -0.3634 -2.3126
v  7.6443 -0.3634 -2.3126
v  13.5509 -0.3634 -2.3126
v  18.7089 -0.3634 -2.3126
v  -15.8325 4.0388 -2.3126
v  -10.6745 4.0388 -2.3126
v  -4.7679 4.0388 -2.3126
v  1.4382 4.0388 -2.3126
v  7.6443 4.0388 -2.3126
v  13.5509 4.0388 -2.3126
v  18.7089 4.0388 -2.3126
v  -15.8325 7.7694 -2.3126
v  -10.6745 8.4411 -2.3126
v  -4.7679 8.4411 -2.3126
v  1.4382 8.4411 -2.3126
v  7.6443 8.4411 -2.3126
v  13.5509 8.4411 -2.3126
v  18.7089 7.7694 -2.3126
v  -15.8325 -0.3634 18.5247
v  -10.6745 -0.3634 18.5247
v  -4.7679 -0.3634 18.5247
v  1.4382 -0.3634 18.5247
v  7.6443 -0.3634 18.5247
v  13.5509 -0.3634 18.5247
v  18.7089 -0.3634 18.5247
v  -15.8325 4.0388 18.5247
v  -10.6745 4.0388 18.5247
v  -4.7679 4.0388 18.5247
v  1.4382 4.0388 18.5247
v  7.6443 4.0388 18.5247
v  13.5509 4.0388 18.5247
v  18.7089 4.0388 18.5247
v  -15.8325 7.7694 18.5247
v  -10.6745 8.4411 18.5247
v  -4.7679 8.4411 18.5247
v  1.4382 8.4411 18.5247
v  7.6443 8.4411 18.5247
v  13.5509 8.4411 18.5247
v  18.7089 7.7694 18.5247
v  -15.8325 1.8377 -2.3126
v  -10.6745 1.8377 -2.3126
v  -4.7679 1.8377 -2.3126
v  1.4382 1.8377 -2.3126
v  7.6443 1.8377 -2.3126
v  13.5509 1.8377 -2.3126
v  18.7089 1.8377 -2.3126
v  -15.8325 5.9041 -2.3126
v  -10.6745 6.2400 -2.3126
v  -4.7679 6.2400 -2.3126
v  1.4382 6.2400 -2.3126
v  7.6443 6.2400 -2.3126
v  13.5509 6.2400 -2.3126
v  18.7089 5.9041 -2.3126
v  -10.6745 1.8377 18.5247
v  -15.8325 1.8377 18.5247
v  -4.7679 1.8377 18.5247
v  1.4382 1.8377 18.5247
v  7.6443 1.8377 18.5247
v  13.5509 1.8377 18.5247
v  18.7089 1.8377 18.5247
v  -10.6745 6.2400 18.5247
v  -15.8325 5.9041 18.5247
v  -4.7679 6.2400 18.5247
v  1.4382 6.2400 18.5247
v  7.6443 6.2400 18.5247
v  13.5509 6.2400 18.5247
v  18.7089 5.9041 18.5247
# 70 vertices

vn 0.0000 0.0000 -1.0000
vn 0.0000 0.0000 -1.0000
vn 0.0000 0.0000 -1.0000
vn 0.0000 0.0000 -1.0000
vn 0.0000 0.0000 -1.0000
vn 0.0000 0.0000 -1.0000
vn 0.0000 0.0000 -1.0000
vn 0.0000 0.0000 -1.0000
vn 0.0000 0.0000 -1.0000
vn 0.0000 0.0000 -1.0000
vn 0.0000 0.0000 -1.0000
vn 0.0000 0.0000 -1.0000
vn 0.0000 0.0000 -1.0000
vn 0.0000 0.0000 -1.0000
vn 0.0000 0.0000 -1.0000
vn 0.0000 0.0000 -1.0000
vn 0.0000 0.0000 -1.0000
vn 0.0000 0.0000 -1.0000
vn 0.0000 0.0000 -1.0000
vn 0.0000 0.0000 -1.0000
vn 0.0000 0.0000 -1.0000
vn 0.0000 0.0000 -1.0000
vn 0.0000 0.0000 -1.0000
vn 0.0000 0.0000 -1.0000
vn 0.0000 0.0000 -1.0000
vn 0.0000 0.0000 -1.0000
vn 0.0000 0.0000 -1.0000
vn 0.0000 0.0000 -1.0000
vn 0.0000 0.0000 -1.0000
vn 0.0000 0.0000 -1.0000
vn 0.0000 0.0000 -1.0000
vn 0.0000 0.0000 -1.0000
vn 0.0000 0.0000 -1.0000
vn 0.0000 0.0000 -1.0000
vn 0.0000 0.0000 -1.0000
vn 0.0000 0.0000 -1.0000
vn 0.0000 0.0000 -1.0000
vn 0.0000 0.0000 -1.0000
vn 0.0000 0.0000 -1.0000
vn 0.0000 0.0000 -1.0000
vn 0.0000 0.0000 -1.0000
vn 0.0000 0.0000 -1.0000
vn 0.0000 0.0000 -1.0000
vn 0.0000 0.0000 -1.0000
vn 0.0000 0.0000 -1.0000
vn 0.0000 0.0000 -1.0000
vn 0.0000 0.0000 -1.0000
vn 0.0000 0.0000 -1.0000
vn 0.0000 -0.0000 1.0000
vn 0.0000 -0.0000 1.0000
vn 0.0000 -0.0000 1.0000
vn 0.0000 -0.0000 1.0000
vn 0.0000 -0.0000 1.0000
vn 0.0000 -0.0000 1.0000
vn 0.0000 -0.0000 1.0000
vn 0.0000 -0.0000 1.0000
vn 0.0000 -0.0000 1.0000
vn 0.0000 -0.0000 1.0000
vn 0.0000 -0.0000 1.0000
vn 0.0000 -0.0000 1.0000
vn 0.0000 -0.0000 1.0000
vn 0.0000 -0.0000 1.0000
vn 0.0000 -0.0000 1.0000
vn 0.0000 -0.0000 1.0000
vn 0.0000 -0.0000 1.0000
vn 0.0000 -0.0000 1.0000
vn 0.0000 -0.0000 1.0000
vn 0.0000 -0.0000 1.0000
vn 0.0000 -0.0000 1.0000
vn 0.0000 -0.0000 1.0000
vn 0.0000 -0.0000 1.0000
vn 0.0000 -0.0000 1.0000
vn 0.0000 -0.0000 1.0000
vn 0.0000 -0.0000 1.0000
vn 0.0000 -0.0000 1.0000
vn 0.0000 -0.0000 1.0000
vn 0.0000 -0.0000 1.0000
vn 0.0000 -0.0000 1.0000
vn 0.0000 -0.0000 1.0000
vn 0.0000 -0.0000 1.0000
vn 0.0000 -0.0000 1.0000
vn 0.0000 -0.0000 1.0000
vn 0.0000 -0.0000 1.0000
vn 0.0000 -0.0000 1.0000
vn 0.0000 -0.0000 1.0000
vn 0.0000 -0.0000 1.0000
vn 0.0000 -0.0000 1.0000
vn 0.0000 -0.0000 1.0000
vn 0.0000 -0.0000 1.0000
vn 0.0000 -0.0000 1.0000
vn 0.0000 -0.0000 1.0000
vn 0.0000 -0.0000 1.0000
vn 0.0000 -0.0000 1.0000
vn 0.0000 -0.0000 1.0000
vn 0.0000 -0.0000 1.0000
vn 0.0000 -0.0000 1.0000
vn 0.0000 -1.0000 -0.0000
vn 0.0000 -1.0000 -0.0000
vn 0.0000 -1.0000 -0.0000
vn 0.0000 -1.0000 -0.0000
vn 0.0000 -1.0000 -0.0000
vn -0.0000 -1.0000 -0.0000
vn -0.0000 -1.0000 -0.0000
vn 0.0000 -1.0000 -0.0000
vn -0.0000 -1.0000 -0.0000
vn 0.0000 -1.0000 -0.0000
vn 0.0000 -1.0000 -0.0000
vn -0.0000 -1.0000 -0.0000
vn 0.0000 -1.0000 -0.0000
vn 0.0000 -1.0000 -0.0000
vn 0.0000 -1.0000 -0.0000
vn 0.0000 -1.0000 -0.0000
vn 0.0000 -1.0000 -0.0000
vn 0.0000 -1.0000 -0.0000
vn 0.0000 -1.0000 -0.0000
vn 0.0000 -1.0000 -0.0000
vn 0.0000 -1.0000 -0.0000
vn 0.0000 -1.0000 -0.0000
vn 0.0000 -1.0000 -0.0000
vn 0.0000 -1.0000 -0.0000
vn 1.0000 0.0000 -0.0000
vn 1.0000 0.0000 -0.0000
vn 1.0000 0.0000 -0.0000
vn 1.0000 0.0000 -0.0000
vn 1.0000 0.0000 -0.0000
vn 1.0000 0.0000 -0.0000
vn 1.0000 0.0000 -0.0000
vn 1.0000 0.0000 -0.0000
vn 0.1291 0.9916 0.0000
vn 0.0647 0.9979 0.0000
vn 0.0647 0.9979 0.0000
vn 0.1291 0.9916 0.0000
vn 0.0647 0.9979 0.0000
vn -0.0000 1.0000 0.0000
vn -0.0000 1.0000 0.0000
vn 0.0647 0.9979 0.0000
vn -0.0000 1.0000 0.0000
vn 0.0000 1.0000 0.0000
vn 0.0000 1.0000 0.0000
vn -0.0000 1.0000 0.0000
vn 0.0000 1.0000 0.0000
vn 0.0000 1.0000 0.0000
vn 0.0000 1.0000 0.0000
vn 0.0000 1.0000 0.0000
vn 0.0000 1.0000 0.0000
vn -0.0647 0.9979 0.0000
vn -0.0647 0.9979 0.0000
vn 0.0000 1.0000 0.0000
vn -0.0647 0.9979 0.0000
vn -0.1291 0.9916 0.0000
vn -0.1291 0.9916 0.0000
vn -0.0647 0.9979 0.0000
vn -1.0000 -0.0000 -0.0000
vn -1.0000 -0.0000 -0.0000
vn -1.0000 -0.0000 -0.0000
vn -1.0000 -0.0000 -0.0000
vn -1.0000 -0.0000 -0.0000
vn -1.0000 0.0000 -0.0000
vn -1.0000 0.0000 -0.0000
vn -1.0000 -0.0000 -0.0000
vn 0.0000 0.0000 -1.0000
vn 0.0000 0.0000 -1.0000
vn 0.0000 0.0000 -1.0000
vn 0.0000 0.0000 -1.0000
vn 0.0000 0.0000 -1.0000
vn 0.0000 0.0000 -1.0000
vn 0.0000 0.0000 -1.0000
vn 0.0000 0.0000 -1.0000
vn 0.0000 0.0000 -1.0000
vn 0.0000 0.0000 -1.0000
vn 0.0000 0.0000 -1.0000
vn 0.0000 0.0000 -1.0000
vn 0.0000 0.0000 -1.0000
vn 0.0000 0.0000 -1.0000
vn 0.0000 0.0000 -1.0000
vn 0.0000 0.0000 -1.0000
vn 0.0000 0.0000 -1.0000
vn 0.0000 0.0000 -1.0000
vn 0.0000 0.0000 -1.0000
vn 0.0000 0.0000 -1.0000
vn 0.0000 0.0000 -1.0000
vn 0.0000 0.0000 -1.0000
vn 0.0000 0.0000 -1.0000
vn 0.0000 0.0000 -1.0000
vn 0.0000 0.0000 -1.0000
vn 0.0000 0.0000 -1.0000
vn 0.0000 0.0000 -1.0000
vn 0.0000 0.0000 -1.0000
vn 0.0000 0.0000 -1.0000
vn 0.0000 0.0000 -1.0000
vn 0.0000 0.0000 -1.0000
vn 0.0000 0.0000 -1.0000
vn 0.0000 0.0000 -1.0000
vn 0.0000 0.0000 -1.0000
vn 0.0000 0.0000 -1.0000
vn 0.0000 0.0000 -1.0000
vn 0.0000 0.0000 -1.0000
vn 0.0000 0.0000 -1.0000
vn 0.0000 0.0000 -1.0000
vn 0.0000 0.0000 -1.0000
vn 0.0000 0.0000 -1.0000
vn 0.0000 0.0000 -1.0000
vn 0.0000 0.0000 -1.0000
vn 0.0000 0.0000 -1.0000
vn 0.0000 0.0000 -1.0000
vn 0.0000 0.0000 -1.0000
vn 0.0000 0.0000 -1.0000
vn 0.0000 0.0000 -1.0000
vn 0.0000 -0.0000 1.0000
vn 0.0000 -0.0000 1.0000
vn 0.0000 -0.0000 1.0000
vn 0.0000 -0.0000 1.0000
vn 0.0000 -0.0000 1.0000
vn 0.0000 -0.0000 1.0000
vn 0.0000 -0.0000 1.0000
vn 0.0000 -0.0000 1.0000
vn 0.0000 -0.0000 1.0000
vn 0.0000 -0.0000 1.0000
vn 0.0000 -0.0000 1.0000
vn 0.0000 -0.0000 1.0000
vn 0.0000 -0.0000 1.0000
vn 0.0000 -0.0000 1.0000
vn 0.0000 -0.0000 1.0000
vn 0.0000 -0.0000 1.0000
vn 0.0000 -0.0000 1.0000
vn 0.0000 -0.0000 1.0000
vn 0.0000 -0.0000 1.0000
vn 0.0000 -0.0000 1.0000
vn 0.0000 -0.0000 1.0000
vn 0.0000 -0.0000 1.0000
vn 0.0000 -0.0000 1.0000
vn 0.0000 -0.0000 1.0000
vn 0.0000 -0.0000 1.0000
vn 0.0000 -0.0000 1.0000
vn 0.0000 -0.0000 1.0000
vn 0.0000 -0.0000 1.0000
vn 0.0000 -0.0000 1.0000
vn 0.0000 -0.0000 1.0000
vn 0.0000 -0.0000 1.0000
vn 0.0000 -0.0000 1.0000
vn 0.0000 -0.0000 1.0000
vn 0.0000 -0.0000 1.0000
vn 0.0000 -0.0000 1.0000
vn 0.0000 -0.0000 1.0000
vn 0.0000 -0.0000 1.0000
vn 0.0000 -0.0000 1.0000
vn 0.0000 -0.0000 1.0000
vn 0.0000 -0.0000 1.0000
vn 0.0000 -0.0000 1.0000
vn 0.0000 -0.0000 1.0000
vn 0.0000 -0.0000 1.0000
vn 0.0000 -0.0000 1.0000
vn 0.0000 -0.0000 1.0000
vn 0.0000 -0.0000 1.0000
vn 0.0000 -0.0000 1.0000
vn 0.0000 -0.0000 1.0000
vn 1.0000 0.0000 -0.0000
vn 1.0000 0.0000 -0.0000
vn 1.0000 0.0000 -0.0000
vn 1.0000 0.0000 -0.0000
vn 1.0000 0.0000 -0.0000
vn 1.0000 0.0000 -0.0000
vn 1.0000 0.0000 -0.0000
vn 1.0000 0.0000 -0.0000
vn -1.0000 -0.0000 -0.0000
vn -1.0000 -0.0000 -0.0000
vn -1.0000 -0.0000 -0.0000
vn -1.0000 -0.0000 -0.0000
vn -1.0000 0.0000 -0.0000
vn -1.0000 0.0000 -0.0000
vn -1.0000 0.0000 -0.0000
vn -1.0000 0.0000 -0.0000
# 272 vertex normals

vt 0.4106 0.1536 0.0000
vt 0.4106 0.1536 0.0000
vt 0.3799 0.1536 0.0000
vt 0.3799 0.1536 0.0000
vt 0.3447 0.1536 0.0000
vt 0.3447 0.1536 0.0000
vt 0.3077 0.1536 0.0000
vt 0.3077 0.1536 0.0000
vt 0.2707 0.1536 0.0000
vt 0.2707 0.1536 0.0000
vt 0.2355 0.1536 0.0000
vt 0.2355 0.1536 0.0000
vt 0.2047 0.1536 0.0000
vt 0.2047 0.1536 0.0000
vt 0.4106 0.1536 0.0000
vt 0.4106 0.1536 0.0000
vt 0.3799 0.1536 0.0000
vt 0.3799 0.1536 0.0000
vt 0.3447 0.1536 0.0000
vt 0.3447 0.1536 0.0000
vt 0.3077 0.1536 0.0000
vt 0.3077 0.1536 0.0000
vt 0.2707 0.1536 0.0000
vt 0.2707 0.1536 0.0000
vt 0.2355 0.1536 0.0000
vt 0.2355 0.1536 0.0000
vt 0.2047 0.1536 0.0000
vt 0.2047 0.1536 0.0000
vt 0.4106 0.7486 0.0000
vt 0.3799 0.7486 0.0000
vt 0.3799 0.7486 0.0000
vt 0.4106 0.7486 0.0000
vt 0.3447 0.7486 0.0000
vt 0.3447 0.7486 0.0000
vt 0.3077 0.7486 0.0000
vt 0.3077 0.7486 0.0000
vt 0.2707 0.7486 0.0000
vt 0.2707 0.7486 0.0000
vt 0.2355 0.7486 0.0000
vt 0.7362 0.0044 0.0000
vt 0.2047 0.7486 0.0000
vt 0.2047 0.7486 0.0000
vt 0.4106 0.7486 0.0000
vt 0.3799 0.7486 0.0000
vt 0.3799 0.7486 0.0000
vt 0.4106 0.7486 0.0000
vt 0.3447 0.7486 0.0000
vt 0.3447 0.7486 0.0000
vt 0.3077 0.7486 0.0000
vt 0.3077 0.7486 0.0000
vt 0.2707 0.7486 0.0000
vt 0.2707 0.7486 0.0000
vt 0.2355 0.7486 0.0000
vt 0.2355 0.7486 0.0000
vt 0.2047 0.7486 0.0000
vt 0.2047 0.7486 0.0000
vt 0.2047 0.1536 0.0000
vt 0.2355 0.1536 0.0000
vt 0.2355 0.7486 0.0000
vt 0.2047 0.7486 0.0000
vt 0.2707 0.1536 0.0000
vt 0.2707 0.7486 0.0000
vt 0.3077 0.1536 0.0000
vt 0.3077 0.7486 0.0000
vt 0.3447 0.1536 0.0000
vt 0.3447 0.7486 0.0000
vt 0.3799 0.1536 0.0000
vt 0.3799 0.7486 0.0000
vt 0.4106 0.1536 0.0000
vt 0.4106 0.7486 0.0000
vt 0.8750 0.0044 0.0000
vt 0.8750 0.0668 0.0000
vt 0.7362 0.0668 0.0000
vt 0.9961 0.0044 0.0000
vt 0.9961 0.0668 0.0000
vt 0.8750 0.1293 0.0000
vt 0.7362 0.1293 0.0000
vt 0.9961 0.1293 0.0000
# 78 texture coords

g Cpu
usemtl Computador
s 1
f 1/1/1 43/2/2 44/3/3 2/4/4 
f 2/4/5 44/3/6 45/5/7 3/6/8 
f 3/6/9 45/5/10 46/7/11 4/8/12 
f 4/8/13 46/7/14 47/9/15 5/10/16 
f 5/10/17 47/9/18 48/11/19 6/12/20 
f 6/12/21 48/11/22 49/13/23 7/14/24 
f 8/15/25 50/16/26 51/17/27 9/18/28 
f 9/18/29 51/17/30 52/19/31 10/20/32 
f 10/20/33 52/19/34 53/21/35 11/22/36 
f 11/22/37 53/21/38 54/23/39 12/24/40 
f 12/24/41 54/23/42 55/25/43 13/26/44 
f 13/26/45 55/25/46 56/27/47 14/28/48 
f 22/29/49 23/30/50 57/31/51 58/32/52 
f 23/30/53 24/33/54 59/34/55 57/31/56 
f 24/33/57 25/35/58 60/36/59 59/34/60 
f 25/35/61 26/37/62 61/38/63 60/36/64 
f 26/40/65 27/71/66 62/72/67 61/73/68 
f 27/71/69 28/74/70 63/75/71 62/72/72 
f 29/43/73 30/44/74 64/45/75 65/46/76 
f 30/44/77 31/47/78 66/48/79 64/45/80 
f 31/47/81 32/49/82 67/50/83 66/48/84 
f 32/49/85 33/51/86 68/52/87 67/50/88 
f 33/51/89 34/53/90 69/54/91 68/52/92 
f 34/53/93 35/55/94 70/56/95 69/54/96 
s 2
f 1/1/97 2/4/98 23/30/99 22/29/100 
f 2/4/101 3/6/102 24/33/103 23/30/104 
f 3/6/105 4/8/106 25/35/107 24/33/108 
f 4/8/109 5/10/110 26/37/111 25/35/112 
f 5/10/113 6/12/114 27/39/115 26/37/116 
f 6/12/117 7/14/118 28/41/119 27/39/120 
s 4
f 7/14/121 49/13/122 63/42/123 28/41/124 
f 14/28/125 56/27/126 70/56/127 35/55/128 
s 2
f 21/57/129 20/58/130 41/59/131 42/60/132 
f 20/58/133 19/61/134 40/62/135 41/59/136 
f 19/61/137 18/63/138 39/64/139 40/62/140 
f 18/63/141 17/65/142 38/66/143 39/64/144 
f 17/65/145 16/67/146 37/68/147 38/66/148 
f 16/67/149 15/69/150 36/70/151 37/68/152 
s 4
f 15/69/153 50/16/154 65/46/155 36/70/156 
f 8/15/157 43/2/158 58/32/159 29/43/160 
s 1
f 43/2/161 8/15/162 9/18/163 44/3/164 
f 44/3/165 9/18/166 10/20/167 45/5/168 
f 45/5/169 10/20/170 11/22/171 46/7/172 
f 46/7/173 11/22/174 12/24/175 47/9/176 
f 47/9/177 12/24/178 13/26/179 48/11/180 
f 48/11/181 13/26/182 14/28/183 49/13/184 
f 50/16/185 15/69/186 16/67/187 51/17/188 
f 51/17/189 16/67/190 17/65/191 52/19/192 
f 52/19/193 17/65/194 18/63/195 53/21/196 
f 53/21/197 18/63/198 19/61/199 54/23/200 
f 54/23/201 19/61/202 20/58/203 55/25/204 
f 55/25/205 20/58/206 21/57/207 56/27/208 
f 57/31/209 30/44/210 29/43/211 58/32/212 
f 59/34/213 31/47/214 30/44/215 57/31/216 
f 60/36/217 32/49/218 31/47/219 59/34/220 
f 61/38/221 33/51/222 32/49/223 60/36/224 
f 62/72/225 34/76/226 33/77/227 61/73/228 
f 63/75/229 35/78/230 34/76/231 62/72/232 
f 64/45/233 37/68/234 36/70/235 65/46/236 
f 66/48/237 38/66/238 37/68/239 64/45/240 
f 67/50/241 39/64/242 38/66/243 66/48/244 
f 68/52/245 40/62/246 39/64/247 67/50/248 
f 69/54/249 41/59/250 40/62/251 68/52/252 
f 70/56/253 42/60/254 41/59/255 69/54/256 
s 4
f 49/13/257 14/28/258 35/55/259 63/42/260 
f 56/27/261 21/57/262 42/60/263 70/56/264 
f 50/16/265 8/15/266 29/43/267 65/46/268 
f 43/2/269 1/1/270 22/29/271 58/32/272 
# 68 polygons

