# 3ds Max Wavefront OBJ Exporter v0.97b - (c)2007 guruware
# File Created: 23.11.2018 11:02:34

mtllib Marcador_1.mtl

#
# object Marcador1
#

v  -0.0000 12.5656 6.0078
v  -0.0000 12.2259 7.1394
v  -0.0000 10.7749 7.8694
v  -0.0000 9.6638 7.4678
v  3.8938 11.1248 6.7327
v  3.3195 10.9976 7.7574
v  2.1711 9.9716 8.2736
v  1.5968 9.0729 7.7651
v  5.5067 7.6465 8.4828
v  4.6946 8.0322 9.2494
v  3.0703 8.0322 9.2494
v  2.2582 7.6465 8.4828
v  3.8938 4.1681 10.2329
v  3.3195 5.0668 10.7413
v  2.1711 6.0927 10.2252
v  1.5968 6.2200 9.2005
v  -0.0000 2.7273 10.9578
v  -0.0000 3.8385 11.3594
v  -0.0000 5.2894 10.6293
v  -0.0000 5.6292 9.4977
v  -3.8938 4.1681 10.2329
v  -3.3196 5.0668 10.7413
v  -2.1711 6.0927 10.2252
v  -1.5968 6.2200 9.2005
v  -5.5067 7.6465 8.4828
v  -4.6946 8.0322 9.2494
v  -3.0704 8.0322 9.2494
v  -2.2583 7.6465 8.4828
v  -3.8938 11.1248 6.7327
v  -3.3196 10.9976 7.7574
v  -2.1711 9.9716 8.2736
v  -1.5968 9.0729 7.7651
v  -0.0000 9.7104 8.0038
v  -1.4560 9.1717 8.2748
v  -2.0591 7.8711 8.9292
v  -1.4560 6.5705 9.5836
v  -0.0000 6.0317 9.8546
v  1.4559 6.5705 9.5836
v  2.0590 7.8711 8.9292
v  1.4559 9.1717 8.2748
v  -0.0000 7.8711 8.9292
v  -0.0000 9.4934 7.5724
v  -1.4560 8.9547 7.8435
v  -2.0591 7.6541 8.4979
v  -1.4560 6.3534 9.1522
v  -0.0000 5.8147 9.4233
v  1.4559 6.3534 9.1522
v  2.0590 7.6541 8.4979
v  1.4559 8.9547 7.8435
# 49 vertices

vn -0.0000 0.9984 0.0574
vn -0.0000 0.8854 0.4648
vn 0.4116 0.7331 0.5414
vn 0.6124 0.7718 0.1714
vn -0.0000 0.8854 0.4648
vn 0.0000 0.0599 0.9982
vn -0.2794 0.1633 0.9462
vn 0.4116 0.7331 0.5414
vn 0.0000 0.0599 0.9982
vn 0.0000 -0.5489 0.8359
vn -0.6124 -0.3223 0.7219
vn -0.2794 0.1633 0.9462
vn 0.6124 0.7718 0.1714
vn 0.4116 0.7331 0.5414
vn 0.5821 0.3655 0.7264
vn 0.8660 0.2247 0.4467
vn 0.4116 0.7331 0.5414
vn -0.2794 0.1633 0.9462
vn -0.3951 0.4129 0.8206
vn 0.5821 0.3655 0.7264
vn -0.2794 0.1633 0.9462
vn -0.6124 -0.3223 0.7219
vn -0.8660 0.2247 0.4467
vn -0.3951 0.4129 0.8206
vn 0.8660 0.2247 0.4467
vn 0.5821 0.3655 0.7264
vn 0.4116 -0.0022 0.9114
vn 0.6124 -0.3223 0.7219
vn 0.5821 0.3655 0.7264
vn -0.3951 0.4129 0.8206
vn -0.2794 0.6625 0.6950
vn 0.4116 -0.0022 0.9114
vn -0.3951 0.4129 0.8206
vn -0.8660 0.2247 0.4467
vn -0.6124 0.7718 0.1714
vn -0.2794 0.6625 0.6950
vn 0.6124 -0.3223 0.7219
vn 0.4116 -0.0022 0.9114
vn -0.0000 -0.1545 0.9880
vn -0.0000 -0.5489 0.8359
vn 0.4116 -0.0022 0.9114
vn -0.2794 0.6625 0.6950
vn -0.0000 0.7658 0.6430
vn -0.0000 -0.1545 0.9880
vn -0.2794 0.6625 0.6950
vn -0.6124 0.7718 0.1714
vn 0.0000 0.9984 0.0574
vn -0.0000 0.7658 0.6430
vn -0.0000 -0.5489 0.8359
vn -0.0000 -0.1545 0.9880
vn -0.4116 -0.0022 0.9114
vn -0.6124 -0.3223 0.7219
vn -0.0000 -0.1545 0.9880
vn -0.0000 0.7658 0.6430
vn 0.2794 0.6625 0.6950
vn -0.4116 -0.0022 0.9114
vn -0.0000 0.7658 0.6430
vn 0.0000 0.9984 0.0574
vn 0.6124 0.7718 0.1714
vn 0.2794 0.6625 0.6950
vn -0.6124 -0.3223 0.7219
vn -0.4116 -0.0022 0.9114
vn -0.5821 0.3655 0.7264
vn -0.8660 0.2247 0.4467
vn -0.4116 -0.0022 0.9114
vn 0.2794 0.6625 0.6950
vn 0.3951 0.4129 0.8206
vn -0.5821 0.3655 0.7264
vn 0.2794 0.6625 0.6950
vn 0.6124 0.7718 0.1714
vn 0.8660 0.2247 0.4467
vn 0.3951 0.4129 0.8206
vn -0.8660 0.2247 0.4467
vn -0.5821 0.3655 0.7264
vn -0.4116 0.7331 0.5414
vn -0.6124 0.7718 0.1714
vn -0.5821 0.3655 0.7264
vn 0.3951 0.4129 0.8206
vn 0.2794 0.1633 0.9462
vn -0.4116 0.7331 0.5414
vn 0.3951 0.4129 0.8206
vn 0.8660 0.2247 0.4467
vn 0.6124 -0.3223 0.7219
vn 0.2794 0.1633 0.9462
vn -0.6124 0.7718 0.1714
vn -0.4116 0.7331 0.5414
vn -0.0000 0.8854 0.4648
vn -0.0000 0.9984 0.0574
vn -0.4116 0.7331 0.5414
vn 0.2794 0.1633 0.9462
vn 0.0000 0.0599 0.9982
vn -0.0000 0.8854 0.4648
vn 0.2794 0.1633 0.9462
vn 0.6124 -0.3223 0.7219
vn 0.0000 -0.5489 0.8359
vn 0.0000 0.0599 0.9982
vn 0.0000 0.4495 0.8933
vn 0.0000 0.4495 0.8933
vn 0.0000 0.4495 0.8933
vn 0.0000 0.4495 0.8933
vn -0.0000 0.4495 0.8933
vn -0.0000 0.4495 0.8933
vn -0.0000 0.4495 0.8933
vn -0.0000 0.4495 0.8933
vn -0.0000 0.4495 0.8933
vn -0.0000 0.4495 0.8933
vn -0.0000 0.4495 0.8933
vn -0.0000 0.4495 0.8933
vn 0.0000 0.4495 0.8933
vn 0.0000 0.4495 0.8933
vn 0.0000 0.4495 0.8933
vn 0.0000 0.4495 0.8933
vn -0.3827 0.8253 -0.4152
vn -0.3827 0.8253 -0.4152
vn -0.3827 0.8253 -0.4152
vn -0.3827 0.8253 -0.4152
vn -0.9239 0.3419 -0.1720
vn -0.9239 0.3419 -0.1720
vn -0.9239 0.3419 -0.1720
vn -0.9239 0.3419 -0.1720
vn -0.9239 -0.3419 0.1720
vn -0.9239 -0.3419 0.1720
vn -0.9239 -0.3419 0.1720
vn -0.9239 -0.3419 0.1720
vn -0.3827 -0.8253 0.4152
vn -0.3827 -0.8253 0.4152
vn -0.3827 -0.8253 0.4152
vn -0.3827 -0.8253 0.4152
vn 0.3827 -0.8253 0.4152
vn 0.3827 -0.8253 0.4152
vn 0.3827 -0.8253 0.4152
vn 0.3827 -0.8253 0.4152
vn 0.9239 -0.3419 0.1720
vn 0.9239 -0.3419 0.1720
vn 0.9239 -0.3419 0.1720
vn 0.9239 -0.3419 0.1720
vn 0.9239 0.3419 -0.1720
vn 0.9239 0.3419 -0.1720
vn 0.9239 0.3419 -0.1720
vn 0.9239 0.3419 -0.1720
vn 0.3827 0.8253 -0.4152
vn 0.3827 0.8253 -0.4152
vn 0.3827 0.8253 -0.4152
vn 0.3827 0.8253 -0.4152
# 144 vertex normals

vt 0.6262 0.3914 0.0000
vt 0.6262 0.3771 0.0000
vt 0.6927 0.3516 0.0000
vt 0.7041 0.3616 0.0000
vt 0.6262 0.3470 0.0000
vt 0.6697 0.3304 0.0000
vt 0.6262 0.3313 0.0000
vt 0.6582 0.3191 0.0000
vt 0.7202 0.2902 0.0000
vt 0.7364 0.2895 0.0000
vt 0.6877 0.2902 0.0000
vt 0.6714 0.2895 0.0000
vt 0.6927 0.2287 0.0000
vt 0.7041 0.2175 0.0000
vt 0.6697 0.2500 0.0000
vt 0.6582 0.2600 0.0000
vt 0.6262 0.2033 0.0000
vt 0.6262 0.1876 0.0000
vt 0.6262 0.2334 0.0000
vt 0.6262 0.2478 0.0000
vt 0.5598 0.2287 0.0000
vt 0.5483 0.2175 0.0000
vt 0.5828 0.2500 0.0000
vt 0.5943 0.2600 0.0000
vt 0.5323 0.2902 0.0000
vt 0.5161 0.2895 0.0000
vt 0.5648 0.2902 0.0000
vt 0.5811 0.2895 0.0000
vt 0.5598 0.3516 0.0000
vt 0.5483 0.3616 0.0000
vt 0.5828 0.3304 0.0000
vt 0.5943 0.3191 0.0000
vt 0.0889 0.2630 0.0000
vt 0.0889 0.2003 0.0000
vt 0.1368 0.2187 0.0000
vt 0.1567 0.2630 0.0000
vt 0.0210 0.2630 0.0000
vt 0.0409 0.2187 0.0000
vt 0.1368 0.3074 0.0000
vt 0.0889 0.3258 0.0000
vt 0.0409 0.3074 0.0000
vt 0.0889 0.3348 0.0000
vt 0.0332 0.3135 0.0000
vt 0.0101 0.2619 0.0000
vt 0.0332 0.2104 0.0000
vt 0.0889 0.1891 0.0000
vt 0.1446 0.2104 0.0000
vt 0.1676 0.2619 0.0000
vt 0.1446 0.3135 0.0000
vt 0.2021 0.1690 0.0000
vt 0.2260 0.0957 0.0000
vt 0.3214 0.0955 0.0000
vt 0.3480 0.1687 0.0000
vt 0.3222 0.0958 0.0000
vt 0.3484 0.1691 0.0000
vt 0.3216 0.0949 0.0000
vt 0.3485 0.1679 0.0000
vt 0.3215 0.0965 0.0000
vt 0.3479 0.1697 0.0000
vt 0.3216 0.0962 0.0000
vt 0.3480 0.1694 0.0000
vt 0.3218 0.0957 0.0000
vt 0.3479 0.1690 0.0000
vt 0.3220 0.0961 0.0000
vt 0.3484 0.1693 0.0000
vt 0.3484 0.1700 0.0000
vt 0.3220 0.0968 0.0000
vt 0.2268 0.0953 0.0000
vt 0.2025 0.1683 0.0000
vt 0.2262 0.0955 0.0000
vt 0.2026 0.1688 0.0000
vt 0.2261 0.0962 0.0000
vt 0.2020 0.1694 0.0000
vt 0.2262 0.0961 0.0000
vt 0.2021 0.1692 0.0000
vt 0.2264 0.0951 0.0000
vt 0.2021 0.1681 0.0000
vt 0.2266 0.0958 0.0000
vt 0.2025 0.1689 0.0000
vt 0.2266 0.0965 0.0000
vt 0.2025 0.1697 0.0000
# 81 texture coords

g Marcador1
usemtl Marcador1
s 1
f 1/1/1 2/2/2 6/3/3 5/4/4 
f 2/50/5 3/51/6 7/52/7 6/53/8 
f 3/5/9 4/7/10 8/8/11 7/6/12 
f 5/4/13 6/3/14 10/9/15 9/10/16 
f 6/69/17 7/68/18 11/54/19 10/55/20 
f 7/6/21 8/8/22 12/12/23 11/11/24 
f 9/10/25 10/9/26 14/13/27 13/14/28 
f 10/71/29 11/70/30 15/56/31 14/57/32 
f 11/11/33 12/12/34 16/16/35 15/15/36 
f 13/14/37 14/13/38 18/17/39 17/18/40 
f 14/73/41 15/72/42 19/58/43 18/59/44 
f 15/15/45 16/16/46 20/20/47 19/19/48 
f 17/18/49 18/17/50 22/21/51 21/22/52 
f 18/75/53 19/74/54 23/60/55 22/61/56 
f 19/19/57 20/20/58 24/24/59 23/23/60 
f 21/22/61 22/21/62 26/25/63 25/26/64 
f 22/77/65 23/76/66 27/62/67 26/63/68 
f 23/23/69 24/24/70 28/28/71 27/27/72 
f 25/26/73 26/25/74 30/29/75 29/30/76 
f 26/79/77 27/78/78 31/64/79 30/65/80 
f 27/27/81 28/28/82 32/32/83 31/31/84 
f 29/30/85 30/29/86 2/2/87 1/1/88 
f 30/81/89 31/80/90 3/67/91 2/66/92 
f 31/31/93 32/32/94 4/7/95 3/5/96 
s off
f 41/33/97 37/34/98 38/35/99 39/36/100 
f 35/37/101 36/38/102 37/34/103 41/33/104 
f 39/36/105 40/39/106 33/40/107 41/33/108 
f 41/33/109 33/40/110 34/41/111 35/37/112 
f 34/41/113 33/40/114 42/42/115 43/43/116 
f 35/37/117 34/41/118 43/43/119 44/44/120 
f 36/38/121 35/37/122 44/44/123 45/45/124 
f 37/34/125 36/38/126 45/45/127 46/46/128 
f 38/35/129 37/34/130 46/46/131 47/47/132 
f 39/36/133 38/35/134 47/47/135 48/48/136 
f 40/39/137 39/36/138 48/48/139 49/49/140 
f 33/40/141 40/39/142 49/49/143 42/42/144 
# 36 polygons

