# 3ds Max Wavefront OBJ Exporter v0.97b - (c)2007 guruware
# File Created: 22.11.2018 15:15:59

mtllib Cola1.mtl

#
# object Cola1
#

v  10.1104 3.2708 -13.5789
v  11.0947 3.2708 -13.5789
v  10.1104 2.2865 -13.5789
v  11.0947 2.2865 -13.5789
v  10.1104 3.2708 -41.4912
v  11.0947 3.2708 -41.4912
v  10.1104 2.2865 -41.4912
v  11.0947 2.2865 -41.4912
v  12.0326 2.3924 -40.5129
v  12.0326 3.1798 -40.5129
v  12.0326 2.3924 -41.3003
v  12.0326 3.1798 -41.3003
v  11.1946 10.1921 -40.8945
v  11.1946 10.1921 -42.4026
v  11.1946 2.2972 -42.4026
v  11.1946 1.3668 -40.8945
v  11.1946 6.1499 -42.4026
v  11.1946 6.1499 -40.8945
v  11.1946 10.1921 -39.3864
v  11.1946 6.1499 -39.3864
v  11.1946 2.2972 -39.3864
v  11.6082 10.1921 -40.8945
v  11.6082 10.1921 -42.4026
v  11.6082 2.2972 -42.4026
v  11.6082 1.3668 -40.8945
v  11.6082 6.1499 -42.4026
v  11.6082 10.1921 -39.3864
v  11.6082 6.1499 -39.3864
v  11.6082 2.2972 -39.3864
v  11.6082 6.1499 -40.8945
v  -10.1077 3.2708 -13.5789
v  -10.1077 2.2865 -13.5789
v  -11.0919 2.2865 -13.5789
v  -11.0919 3.2708 -13.5789
v  -10.1077 3.2708 -41.4912
v  -11.0919 3.2708 -41.4912
v  -11.0919 2.2865 -41.4912
v  -10.1077 2.2865 -41.4912
v  -12.0299 2.3924 -40.5129
v  -12.0299 2.3924 -41.3003
v  -12.0299 3.1798 -41.3003
v  -12.0299 3.1798 -40.5129
v  0.0014 3.1798 -40.5129
v  0.0014 2.3924 -40.5129
v  0.0014 3.1798 -41.3003
v  0.0014 2.3924 -41.3003
v  -11.1919 6.1499 -40.8945
v  -11.1919 10.1921 -40.8945
v  -11.1919 10.1921 -42.4026
v  -11.1919 6.1499 -42.4026
v  -11.1919 2.2972 -42.4026
v  -11.1919 1.3668 -40.8945
v  -11.1919 6.1499 -39.3864
v  -11.1919 10.1921 -39.3864
v  -11.1919 2.2972 -39.3864
v  -11.6055 2.2972 -42.4026
v  -11.6055 1.3668 -40.8945
v  -11.6055 10.1921 -42.4026
v  -11.6055 6.1499 -42.4026
v  -11.6055 10.1921 -40.8945
v  -11.6055 10.1921 -39.3864
v  -11.6055 6.1499 -39.3864
v  -11.6055 2.2972 -39.3864
v  -11.6055 6.1499 -40.8945
# 64 vertices

vn 0.0000 -0.0000 -1.0000
vn 0.0000 -0.0000 -1.0000
vn 0.0000 -0.0000 -1.0000
vn 0.0000 -0.0000 -1.0000
vn 0.0000 1.0000 -0.0000
vn 0.0000 1.0000 -0.0000
vn 0.0000 1.0000 -0.0000
vn 0.0000 1.0000 -0.0000
vn 1.0000 0.0000 -0.0000
vn 1.0000 0.0000 -0.0000
vn 1.0000 0.0000 -0.0000
vn 1.0000 0.0000 -0.0000
vn 0.0000 -1.0000 0.0000
vn 0.0000 -1.0000 0.0000
vn 0.0000 -1.0000 0.0000
vn 0.0000 -1.0000 0.0000
vn -1.0000 0.0000 -0.0000
vn -1.0000 0.0000 -0.0000
vn -1.0000 0.0000 -0.0000
vn -1.0000 0.0000 -0.0000
vn 1.0000 0.0000 -0.0000
vn 1.0000 0.0000 -0.0000
vn 1.0000 0.0000 -0.0000
vn 1.0000 0.0000 -0.0000
vn 0.0000 0.0000 1.0000
vn 0.0000 0.0000 1.0000
vn 0.0000 0.0000 1.0000
vn 0.0000 0.0000 1.0000
vn -0.0000 1.0000 0.0000
vn -0.0000 1.0000 0.0000
vn 0.0000 1.0000 0.0000
vn -0.0000 1.0000 0.0000
vn 0.0000 -0.0000 -1.0000
vn 0.0000 -0.0000 -1.0000
vn 0.0000 -0.0000 -1.0000
vn 0.0000 -0.0000 -1.0000
vn 0.0000 -1.0000 -0.0000
vn 0.0000 -1.0000 -0.0000
vn 0.0000 -1.0000 -0.0000
vn 0.0000 -1.0000 -0.0000
vn -1.0000 -0.0000 -0.0000
vn -1.0000 -0.0000 -0.0000
vn -1.0000 -0.0000 -0.0000
vn -1.0000 -0.0000 -0.0000
vn -1.0000 -0.0000 -0.0000
vn -1.0000 -0.0000 -0.0000
vn -1.0000 -0.0000 -0.0000
vn -1.0000 -0.0000 -0.0000
vn -1.0000 -0.0000 -0.0000
vn -1.0000 -0.0000 -0.0000
vn -1.0000 -0.0000 -0.0000
vn -1.0000 -0.0000 -0.0000
vn -1.0000 -0.0000 -0.0000
vn -1.0000 -0.0000 -0.0000
vn -1.0000 -0.0000 -0.0000
vn -1.0000 -0.0000 -0.0000
vn 0.0000 -0.8511 -0.5250
vn 0.0000 -0.8511 -0.5250
vn 0.0000 -0.8511 -0.5250
vn 0.0000 -0.8511 -0.5250
vn 0.0000 -0.0000 -1.0000
vn 0.0000 -0.0000 -1.0000
vn 0.0000 -0.0000 -1.0000
vn 0.0000 -0.0000 -1.0000
vn 0.0000 1.0000 -0.0000
vn 0.0000 1.0000 -0.0000
vn 0.0000 1.0000 -0.0000
vn 0.0000 1.0000 -0.0000
vn 0.0000 -0.0000 -1.0000
vn 0.0000 -0.0000 -1.0000
vn 0.0000 -0.0000 -1.0000
vn 0.0000 -0.0000 -1.0000
vn 0.0000 1.0000 -0.0000
vn 0.0000 1.0000 -0.0000
vn 0.0000 1.0000 -0.0000
vn 0.0000 1.0000 -0.0000
vn 0.0000 0.0000 1.0000
vn 0.0000 0.0000 1.0000
vn 0.0000 0.0000 1.0000
vn 0.0000 0.0000 1.0000
vn 0.0000 0.0000 1.0000
vn 0.0000 0.0000 1.0000
vn 0.0000 0.0000 1.0000
vn 0.0000 0.0000 1.0000
vn 0.0000 -0.8511 0.5250
vn 0.0000 -0.8511 0.5250
vn 0.0000 -0.8511 0.5250
vn 0.0000 -0.8511 0.5250
vn 1.0000 0.0000 0.0000
vn 1.0000 0.0000 0.0000
vn 1.0000 0.0000 0.0000
vn 1.0000 0.0000 0.0000
vn 1.0000 0.0000 0.0000
vn 1.0000 0.0000 0.0000
vn 1.0000 0.0000 0.0000
vn 1.0000 0.0000 0.0000
vn 1.0000 0.0000 0.0000
vn 1.0000 0.0000 0.0000
vn 1.0000 0.0000 0.0000
vn 1.0000 0.0000 0.0000
vn 1.0000 0.0000 0.0000
vn 1.0000 0.0000 0.0000
vn 1.0000 0.0000 0.0000
vn 1.0000 0.0000 0.0000
vn 0.0000 -0.0000 -1.0000
vn 0.0000 -0.0000 -1.0000
vn 0.0000 -0.0000 -1.0000
vn 0.0000 -0.0000 -1.0000
vn 0.0000 1.0000 -0.0000
vn 0.0000 1.0000 -0.0000
vn 0.0000 1.0000 -0.0000
vn 0.0000 1.0000 -0.0000
vn -1.0000 0.0000 -0.0000
vn -1.0000 0.0000 -0.0000
vn -1.0000 0.0000 -0.0000
vn -1.0000 0.0000 -0.0000
vn 0.0000 -1.0000 0.0000
vn 0.0000 -1.0000 0.0000
vn 0.0000 -1.0000 0.0000
vn 0.0000 -1.0000 0.0000
vn 1.0000 0.0000 -0.0000
vn 1.0000 0.0000 -0.0000
vn 1.0000 0.0000 -0.0000
vn 1.0000 0.0000 -0.0000
vn -1.0000 0.0000 -0.0000
vn -1.0000 0.0000 -0.0000
vn -1.0000 0.0000 -0.0000
vn -1.0000 0.0000 -0.0000
vn 0.0000 0.0000 1.0000
vn 0.0000 0.0000 1.0000
vn 0.0000 0.0000 1.0000
vn 0.0000 0.0000 1.0000
vn 0.0000 1.0000 0.0000
vn -0.0000 1.0000 0.0000
vn 0.0000 1.0000 0.0000
vn 0.0000 1.0000 0.0000
vn 0.0000 -0.0000 -1.0000
vn 0.0000 -0.0000 -1.0000
vn 0.0000 -0.0000 -1.0000
vn 0.0000 -0.0000 -1.0000
vn -0.0000 -1.0000 -0.0000
vn 0.0000 -1.0000 -0.0000
vn 0.0000 -1.0000 -0.0000
vn -0.0000 -1.0000 -0.0000
vn 1.0000 0.0000 -0.0000
vn 1.0000 0.0000 -0.0000
vn 1.0000 0.0000 -0.0000
vn 1.0000 0.0000 -0.0000
vn 1.0000 0.0000 -0.0000
vn 1.0000 0.0000 -0.0000
vn 1.0000 0.0000 -0.0000
vn 1.0000 0.0000 -0.0000
vn 1.0000 0.0000 -0.0000
vn 1.0000 0.0000 -0.0000
vn 1.0000 0.0000 -0.0000
vn 1.0000 0.0000 -0.0000
vn 1.0000 0.0000 -0.0000
vn 1.0000 0.0000 -0.0000
vn 1.0000 0.0000 -0.0000
vn 1.0000 0.0000 -0.0000
vn 0.0000 -0.8511 -0.5250
vn 0.0000 -0.8511 -0.5250
vn 0.0000 -0.8511 -0.5250
vn 0.0000 -0.8511 -0.5250
vn 0.0000 -0.0000 -1.0000
vn 0.0000 -0.0000 -1.0000
vn 0.0000 -0.0000 -1.0000
vn 0.0000 -0.0000 -1.0000
vn 0.0000 1.0000 -0.0000
vn 0.0000 1.0000 -0.0000
vn 0.0000 1.0000 -0.0000
vn 0.0000 1.0000 -0.0000
vn 0.0000 -0.0000 -1.0000
vn 0.0000 -0.0000 -1.0000
vn 0.0000 -0.0000 -1.0000
vn 0.0000 -0.0000 -1.0000
vn 0.0000 1.0000 -0.0000
vn 0.0000 1.0000 -0.0000
vn 0.0000 1.0000 -0.0000
vn 0.0000 1.0000 -0.0000
vn 0.0000 0.0000 1.0000
vn 0.0000 0.0000 1.0000
vn 0.0000 0.0000 1.0000
vn 0.0000 0.0000 1.0000
vn 0.0000 0.0000 1.0000
vn 0.0000 0.0000 1.0000
vn 0.0000 0.0000 1.0000
vn 0.0000 0.0000 1.0000
vn 0.0000 -0.8511 0.5250
vn 0.0000 -0.8511 0.5250
vn 0.0000 -0.8511 0.5250
vn 0.0000 -0.8511 0.5250
vn -1.0000 0.0000 -0.0000
vn -1.0000 0.0000 -0.0000
vn -1.0000 0.0000 -0.0000
vn -1.0000 0.0000 -0.0000
vn -1.0000 0.0000 -0.0000
vn -1.0000 0.0000 -0.0000
vn -1.0000 0.0000 -0.0000
vn -1.0000 0.0000 -0.0000
vn -1.0000 0.0000 -0.0000
vn -1.0000 0.0000 -0.0000
vn -1.0000 0.0000 -0.0000
vn -1.0000 0.0000 -0.0000
vn -1.0000 0.0000 -0.0000
vn -1.0000 0.0000 -0.0000
vn -1.0000 0.0000 -0.0000
vn -1.0000 0.0000 -0.0000
# 208 vertex normals

vt 0.9299 0.5758 0.0000
vt 0.9445 0.5758 0.0000
vt 0.9445 0.5758 0.0000
vt 0.9299 0.5758 0.0000
vt 0.9299 0.2279 0.0000
vt 0.9445 0.2279 0.0000
vt 0.9445 0.2279 0.0000
vt 0.9299 0.2279 0.0000
vt 0.5371 0.9564 0.0000
vt 0.5371 0.9562 0.0000
vt 0.5371 0.9446 0.0000
vt 0.5371 0.9448 0.0000
vt 0.7150 0.9448 0.0000
vt 0.7150 0.9564 0.0000
vt 0.7150 0.9446 0.0000
vt 0.7150 0.9562 0.0000
vt 0.1086 0.8647 0.0000
vt 0.1086 0.8647 0.0000
vt 0.0563 0.8647 0.0000
vt 0.0563 0.8647 0.0000
vt 0.0563 0.8647 0.0000
vt 0.1086 0.8647 0.0000
vt 0.1609 0.8647 0.0000
vt 0.1609 0.8647 0.0000
vt 0.1609 0.8647 0.0000
vt 0.0563 0.8819 0.0000
vt 0.1086 0.8819 0.0000
vt 0.0563 0.8819 0.0000
vt 0.0563 0.8819 0.0000
vt 0.1086 0.8819 0.0000
vt 0.1609 0.8819 0.0000
vt 0.1609 0.8819 0.0000
vt 0.1609 0.8819 0.0000
vt 0.1086 0.8819 0.0000
vt 0.9445 0.5758 0.0000
vt 0.9445 0.5758 0.0000
vt 0.9298 0.5758 0.0000
vt 0.9298 0.5758 0.0000
vt 0.9445 0.2279 0.0000
vt 0.9298 0.2279 0.0000
vt 0.9298 0.2279 0.0000
vt 0.9445 0.2279 0.0000
vt 0.8928 0.9564 0.0000
vt 0.8928 0.9448 0.0000
vt 0.8928 0.9562 0.0000
vt 0.8928 0.9446 0.0000
vt 0.1081 0.8826 0.0000
vt 0.0558 0.8826 0.0000
vt 0.0558 0.8826 0.0000
vt 0.1081 0.8826 0.0000
vt 0.1081 0.8826 0.0000
vt 0.0558 0.8826 0.0000
vt 0.1604 0.8826 0.0000
vt 0.1604 0.8826 0.0000
vt 0.1604 0.8826 0.0000
vt 0.1081 0.8654 0.0000
vt 0.0558 0.8654 0.0000
vt 0.0558 0.8654 0.0000
vt 0.0558 0.8654 0.0000
vt 0.1081 0.8654 0.0000
vt 0.1604 0.8654 0.0000
vt 0.1604 0.8654 0.0000
vt 0.1604 0.8654 0.0000
vt 0.1081 0.8654 0.0000
vt 0.8682 0.9353 0.0000
vt 0.9009 0.9353 0.0000
vt 0.9009 0.9680 0.0000
vt 0.8682 0.9680 0.0000
vt 0.8675 0.9680 0.0000
vt 0.8675 0.9353 0.0000
vt 0.9002 0.9353 0.0000
vt 0.9002 0.9680 0.0000
vt 0.8928 0.9446 0.0000
vt 0.8928 0.9563 0.0000
vt 0.7150 0.9563 0.0000
vt 0.7150 0.9446 0.0000
vt 0.5371 0.9446 0.0000
vt 0.5371 0.9563 0.0000
vt 0.5371 0.9564 0.0000
vt 0.5371 0.9448 0.0000
vt 0.7150 0.9448 0.0000
vt 0.7150 0.9564 0.0000
vt 0.8928 0.9564 0.0000
vt 0.8928 0.9448 0.0000
# 84 texture coords

g Cola1
usemtl Cola1
s 4
f 5/1/1 6/2/2 8/3/3 7/4/4 
s 8
f 1/5/5 2/6/6 6/2/7 5/1/8 
s 16
f 2/6/9 4/7/10 8/3/11 6/2/12 
s 32
f 4/7/13 3/8/14 7/4/15 8/3/16 
s 64
f 3/8/17 1/5/18 5/1/19 7/4/20 
s 2
f 9/65/21 11/66/22 12/67/23 10/68/24 
s 8
f 9/9/25 10/12/26 43/13/27 44/14/28 
s 16
f 10/79/29 12/80/30 45/81/31 43/82/32 
s 32
f 12/10/33 11/11/34 46/15/35 45/16/36 
s 64
f 11/73/37 9/74/38 44/75/39 46/76/40 
s 1
f 18/17/41 13/18/42 14/19/43 17/20/44 
f 17/20/45 15/21/46 16/22/47 18/17/48 
f 18/17/49 20/23/50 19/24/51 13/18/52 
f 20/23/53 18/17/54 16/22/55 21/25/56 
s off
f 16/22/57 15/21/58 24/26/59 25/27/60 
f 17/20/61 14/19/62 23/28/63 26/29/64 
f 14/19/65 13/18/66 22/30/67 23/28/68 
f 15/21/69 17/20/70 26/29/71 24/26/72 
f 13/18/73 19/24/74 27/31/75 22/30/76 
f 19/24/77 20/23/78 28/32/79 27/31/80 
f 20/23/81 21/25/82 29/33/83 28/32/84 
f 21/25/85 16/22/86 25/27/87 29/33/88 
f 26/29/89 23/28/90 22/30/91 30/34/92 
f 25/27/93 24/26/94 26/29/95 30/34/96 
f 22/30/97 27/31/98 28/32/99 30/34/100 
f 30/34/101 28/32/102 29/33/103 25/27/104 
s 4
f 35/35/105 38/36/106 37/37/107 36/38/108 
s 8
f 31/39/109 35/35/110 36/38/111 34/40/112 
s 16
f 34/40/113 36/38/114 37/37/115 33/41/116 
s 32
f 33/41/117 37/37/118 38/36/119 32/42/120 
s 64
f 32/42/121 38/36/122 35/35/123 31/39/124 
s 2
f 39/69/125 42/70/126 41/71/127 40/72/128 
s 8
f 39/43/129 44/14/130 43/13/131 42/44/132 
s 16
f 42/83/133 43/82/134 45/81/135 41/84/136 
s 32
f 41/45/137 45/16/138 46/15/139 40/46/140 
s 64
f 40/77/141 46/76/142 44/75/143 39/78/144 
s 1
f 47/47/145 50/48/146 49/49/147 48/50/148 
f 50/48/149 47/47/150 52/51/151 51/52/152 
f 47/47/153 48/50/154 54/53/155 53/54/156 
f 53/54/157 55/55/158 52/51/159 47/47/160 
s off
f 52/51/161 57/56/162 56/57/163 51/52/164 
f 50/48/165 59/58/166 58/59/167 49/49/168 
f 49/49/169 58/59/170 60/60/171 48/50/172 
f 51/52/173 56/57/174 59/58/175 50/48/176 
f 48/50/177 60/60/178 61/61/179 54/53/180 
f 54/53/181 61/61/182 62/62/183 53/54/184 
f 53/54/185 62/62/186 63/63/187 55/55/188 
f 55/55/189 63/63/190 57/56/191 52/51/192 
f 59/58/193 64/64/194 60/60/195 58/59/196 
f 57/56/197 64/64/198 59/58/199 56/57/200 
f 60/60/201 64/64/202 62/62/203 61/61/204 
f 64/64/205 57/56/206 63/63/207 62/62/208 
# 52 polygons

