# 3ds Max Wavefront OBJ Exporter v0.97b - (c)2007 guruware
# File Created: 22.11.2018 15:17:26

mtllib Llantas2.mtl

#
# object Llantas3
#

v  -21.6763 -13.8429 -26.0093
v  -21.6763 -12.8586 -26.0093
v  -21.6763 -13.8429 10.1638
v  -21.6763 -12.8586 10.1638
v  -21.6763 -13.5433 12.2455
v  -21.6763 -12.5998 11.9651
v  -21.6763 -12.6565 14.1543
v  -21.6763 -11.8337 13.6141
v  -21.6763 -11.2576 15.7269
v  -21.6763 -10.6253 14.9727
v  -21.6763 -9.4652 16.8301
v  -21.6763 -9.0768 15.9258
v  -21.6763 -7.4440 17.3711
v  -21.6763 -7.3070 16.3964
v  -21.6763 -13.8429 -0.6563
v  -21.6763 -13.8429 0.6657
v  -21.6763 -12.8586 -0.6563
v  -21.6763 -12.8586 0.6657
v  -23.0469 -13.8429 -0.6563
v  -23.0469 -13.8429 0.6657
v  -23.0469 -12.8586 0.6657
v  -23.0469 -12.8586 -0.6563
v  -24.4174 -13.8429 -0.6563
v  -24.4174 -13.8429 0.6657
v  -24.4174 -12.8586 0.6657
v  -24.4174 -12.8586 -0.6563
v  -24.7623 1.3181 0.6657
v  -24.7623 1.3181 -0.6563
v  -26.1329 1.3181 -0.6563
v  -26.1329 1.3181 0.6657
v  -18.3252 -7.4440 17.3711
v  -18.3252 -7.3070 16.3964
v  -18.3252 -12.8586 -0.6563
v  -18.3252 -12.8586 0.6657
v  -15.5841 -13.8429 -0.6563
v  -15.5841 -13.8429 0.6657
v  -15.5841 -12.8586 0.6657
v  -15.5841 -12.8586 -0.6563
v  -18.3252 -13.8429 10.1638
v  -18.3252 -13.5433 12.2455
v  -18.3252 -12.8586 10.1638
v  -18.3252 -12.5998 11.9651
v  -18.3252 -12.6565 14.1543
v  -18.3252 -11.8337 13.6141
v  -18.3252 -11.2576 15.7269
v  -18.3252 -10.6253 14.9727
v  -18.3252 -9.4652 16.8301
v  -18.3252 -9.0768 15.9258
v  -18.3252 -13.8429 -26.0093
v  -18.3252 -12.8586 -26.0093
v  -18.3252 -13.8429 -0.6563
v  -18.3252 -13.8429 0.6657
v  -16.9547 -13.8429 0.6657
v  -16.9547 -13.8429 -0.6563
v  -16.9547 -12.8586 0.6657
v  -16.9547 -12.8586 -0.6563
v  -15.2392 1.3181 -0.6563
v  -15.2392 1.3181 0.6657
v  -13.8686 1.3181 -0.6563
v  -13.8686 1.3181 0.6657
v  21.6763 -7.4440 17.3711
v  21.6763 -7.3070 16.3964
v  21.6763 -12.8586 -0.6563
v  21.6763 -12.8586 0.6657
v  24.4174 -13.8429 -0.6563
v  24.4174 -13.8429 0.6657
v  24.4174 -12.8586 0.6657
v  24.4174 -12.8586 -0.6563
v  21.6763 -13.8429 10.1638
v  21.6763 -13.5433 12.2455
v  21.6763 -12.8586 10.1638
v  21.6763 -12.5998 11.9651
v  21.6763 -12.6565 14.1543
v  21.6763 -11.8337 13.6141
v  21.6763 -11.2576 15.7269
v  21.6763 -10.6253 14.9727
v  21.6763 -9.4652 16.8301
v  21.6763 -9.0768 15.9258
v  21.6763 -13.8429 -26.0093
v  21.6763 -12.8586 -26.0093
v  21.6763 -13.8429 -0.6563
v  21.6763 -13.8429 0.6657
v  23.0469 -13.8429 0.6657
v  23.0469 -13.8429 -0.6563
v  23.0469 -12.8586 0.6657
v  23.0469 -12.8586 -0.6563
v  24.7623 1.3181 -0.6563
v  24.7623 1.3181 0.6657
v  26.1329 1.3181 -0.6563
v  26.1329 1.3181 0.6657
v  18.3252 -7.4440 17.3711
v  18.3252 -7.3070 16.3964
v  18.3252 -12.8586 -0.6563
v  18.3252 -12.8586 0.6657
v  15.5841 -13.8429 -0.6563
v  15.5841 -12.8586 -0.6563
v  15.5841 -12.8586 0.6657
v  15.5841 -13.8429 0.6657
v  18.3252 -13.8429 10.1638
v  18.3252 -13.5433 12.2455
v  18.3252 -12.8586 10.1638
v  18.3252 -12.5998 11.9651
v  18.3252 -12.6565 14.1543
v  18.3252 -11.8337 13.6141
v  18.3252 -11.2576 15.7269
v  18.3252 -10.6253 14.9727
v  18.3252 -9.4652 16.8301
v  18.3252 -9.0768 15.9258
v  18.3252 -13.8429 -26.0093
v  18.3252 -12.8586 -26.0093
v  18.3252 -13.8429 -0.6563
v  18.3252 -13.8429 0.6657
v  16.9547 -13.8429 -0.6563
v  16.9547 -13.8429 0.6657
v  16.9547 -12.8586 0.6657
v  16.9547 -12.8586 -0.6563
v  15.2392 1.3181 0.6657
v  15.2392 1.3181 -0.6563
v  13.8686 1.3181 -0.6563
v  13.8686 1.3181 0.6657
# 120 vertices

vn 0.0000 1.0000 -0.0000
vn 0.0000 1.0000 -0.0000
vn 0.0000 1.0000 -0.0000
vn 0.0000 1.0000 -0.0000
vn -1.0000 0.0000 -0.0000
vn -1.0000 0.0000 -0.0000
vn -1.0000 0.0000 -0.0000
vn -1.0000 0.0000 -0.0000
vn 0.0000 -0.9898 0.1425
vn 0.0000 -0.9898 0.1425
vn 0.0000 -0.9898 0.1425
vn 0.0000 -0.9898 0.1425
vn -1.0000 0.0000 -0.0000
vn -1.0000 0.0000 -0.0000
vn -1.0000 0.0000 -0.0000
vn -1.0000 0.0000 -0.0000
vn -1.0000 -0.0000 -0.0000
vn -1.0000 -0.0000 -0.0000
vn -1.0000 -0.0000 -0.0000
vn -1.0000 -0.0000 -0.0000
vn 0.0000 -0.7472 0.6646
vn 0.0000 -0.7472 0.6646
vn 0.0000 -0.7472 0.6646
vn 0.0000 -0.7472 0.6646
vn -1.0000 -0.0000 -0.0000
vn -1.0000 -0.0000 -0.0000
vn -1.0000 -0.0000 -0.0000
vn -1.0000 -0.0000 -0.0000
vn -1.0000 0.0000 -0.0000
vn -1.0000 0.0000 -0.0000
vn -1.0000 0.0000 -0.0000
vn -1.0000 0.0000 -0.0000
vn 0.0000 -0.2586 0.9660
vn 0.0000 -0.2586 0.9660
vn 0.0000 -0.2586 0.9660
vn 0.0000 -0.2586 0.9660
vn -1.0000 0.0000 -0.0000
vn -1.0000 0.0000 -0.0000
vn -1.0000 0.0000 -0.0000
vn -1.0000 0.0000 -0.0000
vn 0.0000 0.0000 -1.0000
vn 0.0000 0.0000 -1.0000
vn 0.0000 0.0000 -1.0000
vn 0.0000 0.0000 -1.0000
vn 0.0000 -1.0000 -0.0000
vn 0.0000 -1.0000 -0.0000
vn 0.0000 -1.0000 -0.0000
vn 0.0000 -1.0000 -0.0000
vn 0.0000 1.0000 0.0000
vn 0.0000 1.0000 0.0000
vn 0.0000 1.0000 0.0000
vn 0.0000 1.0000 0.0000
vn -1.0000 0.0000 -0.0000
vn -1.0000 0.0000 -0.0000
vn -1.0000 0.0000 -0.0000
vn -1.0000 0.0000 -0.0000
vn -1.0000 0.0000 -0.0000
vn -1.0000 0.0000 -0.0000
vn -1.0000 0.0000 -0.0000
vn -1.0000 0.0000 -0.0000
vn 0.0000 -1.0000 -0.0000
vn 0.0000 -1.0000 -0.0000
vn 0.0000 -1.0000 -0.0000
vn 0.0000 -1.0000 -0.0000
vn 0.0000 0.0000 1.0000
vn 0.0000 0.0000 1.0000
vn 0.0000 0.0000 1.0000
vn 0.0000 0.0000 1.0000
vn 0.0000 1.0000 -0.0000
vn 0.0000 1.0000 -0.0000
vn 0.0000 1.0000 -0.0000
vn 0.0000 1.0000 -0.0000
vn 0.0000 0.0000 -1.0000
vn 0.0000 0.0000 -1.0000
vn 0.0000 0.0000 -1.0000
vn 0.0000 0.0000 -1.0000
vn 0.0000 -1.0000 -0.0000
vn 0.0000 -1.0000 -0.0000
vn 0.0000 -1.0000 -0.0000
vn 0.0000 -1.0000 -0.0000
vn 0.0000 0.0000 1.0000
vn 0.0000 0.0000 1.0000
vn 0.0000 0.0000 1.0000
vn 0.0000 0.0000 1.0000
vn 0.0000 0.0000 -1.0000
vn 0.0000 0.0000 -1.0000
vn 0.0000 0.0000 -1.0000
vn 0.0000 0.0000 -1.0000
vn 0.9928 0.1201 -0.0000
vn 0.9928 0.1201 -0.0000
vn 0.9928 0.1201 -0.0000
vn 0.9928 0.1201 -0.0000
vn 0.0000 0.0000 -1.0000
vn 0.0000 0.0000 -1.0000
vn 0.0000 0.0000 -1.0000
vn 0.0000 0.0000 -1.0000
vn -0.9928 -0.1201 -0.0000
vn -0.9928 -0.1201 -0.0000
vn -0.9928 -0.1201 -0.0000
vn -0.9928 -0.1201 -0.0000
vn 0.0000 0.0000 1.0000
vn 0.0000 0.0000 1.0000
vn 0.0000 0.0000 1.0000
vn 0.0000 0.0000 1.0000
vn 0.0000 0.9898 -0.1422
vn 0.0000 0.9898 -0.1422
vn 0.0000 0.9898 -0.1422
vn 0.0000 0.9898 -0.1422
vn 0.0000 0.9069 -0.4213
vn 0.0000 0.9069 -0.4213
vn 0.0000 0.9069 -0.4213
vn 0.0000 0.9069 -0.4213
vn 0.0000 1.0000 0.0000
vn 0.0000 1.0000 0.0000
vn 0.0000 1.0000 0.0000
vn 0.0000 1.0000 0.0000
vn 0.0000 0.9903 0.1392
vn 0.0000 0.9903 0.1392
vn 0.0000 0.9903 0.1392
vn 0.0000 0.9903 0.1392
vn 1.0000 0.0000 -0.0000
vn 1.0000 0.0000 -0.0000
vn 1.0000 0.0000 -0.0000
vn 1.0000 0.0000 -0.0000
vn 1.0000 0.0000 -0.0000
vn 1.0000 0.0000 -0.0000
vn 1.0000 0.0000 -0.0000
vn 1.0000 0.0000 -0.0000
vn 0.0000 -0.9069 0.4213
vn 0.0000 -0.9069 0.4213
vn 0.0000 -0.9069 0.4213
vn 0.0000 -0.9069 0.4213
vn 1.0000 -0.0000 -0.0000
vn 1.0000 -0.0000 -0.0000
vn 1.0000 -0.0000 -0.0000
vn 1.0000 -0.0000 -0.0000
vn 1.0000 -0.0000 -0.0000
vn 1.0000 -0.0000 -0.0000
vn 1.0000 -0.0000 -0.0000
vn 1.0000 -0.0000 -0.0000
vn 0.0000 -0.5242 0.8516
vn 0.0000 -0.5242 0.8516
vn 0.0000 -0.5242 0.8516
vn 0.0000 -0.5242 0.8516
vn 1.0000 0.0000 -0.0000
vn 1.0000 0.0000 -0.0000
vn 1.0000 0.0000 -0.0000
vn 1.0000 0.0000 -0.0000
vn 1.0000 0.0000 -0.0000
vn 1.0000 0.0000 -0.0000
vn 1.0000 0.0000 -0.0000
vn 1.0000 0.0000 -0.0000
vn 1.0000 0.0000 -0.0000
vn 1.0000 0.0000 -0.0000
vn 1.0000 0.0000 -0.0000
vn 1.0000 0.0000 -0.0000
vn 1.0000 0.0000 -0.0000
vn 1.0000 0.0000 -0.0000
vn 1.0000 0.0000 -0.0000
vn 1.0000 0.0000 -0.0000
vn 0.0000 -1.0000 -0.0000
vn 0.0000 -1.0000 -0.0000
vn 0.0000 -1.0000 -0.0000
vn 0.0000 -1.0000 -0.0000
vn 0.0000 0.0000 1.0000
vn 0.0000 0.0000 1.0000
vn 0.0000 0.0000 1.0000
vn 0.0000 0.0000 1.0000
vn 0.0000 1.0000 -0.0000
vn 0.0000 1.0000 -0.0000
vn 0.0000 1.0000 -0.0000
vn 0.0000 1.0000 -0.0000
vn 0.0000 0.0000 -1.0000
vn 0.0000 0.0000 -1.0000
vn 0.0000 0.0000 -1.0000
vn 0.0000 0.0000 -1.0000
vn 0.0000 -1.0000 -0.0000
vn 0.0000 -1.0000 -0.0000
vn 0.0000 -1.0000 -0.0000
vn 0.0000 -1.0000 -0.0000
vn 0.0000 0.0000 1.0000
vn 0.0000 0.0000 1.0000
vn 0.0000 0.0000 1.0000
vn 0.0000 0.0000 1.0000
vn 0.0000 0.0000 -1.0000
vn 0.0000 0.0000 -1.0000
vn 0.0000 0.0000 -1.0000
vn 0.0000 0.0000 -1.0000
vn -0.9928 0.1201 -0.0000
vn -0.9928 0.1201 -0.0000
vn -0.9928 0.1201 -0.0000
vn -0.9928 0.1201 -0.0000
vn 0.0000 0.0000 -1.0000
vn 0.0000 0.0000 -1.0000
vn 0.0000 0.0000 -1.0000
vn 0.0000 0.0000 -1.0000
vn 0.9928 -0.1201 -0.0000
vn 0.9928 -0.1201 -0.0000
vn 0.9928 -0.1201 -0.0000
vn 0.9928 -0.1201 -0.0000
vn 0.0000 0.0000 1.0000
vn 0.0000 0.0000 1.0000
vn 0.0000 0.0000 1.0000
vn 0.0000 0.0000 1.0000
vn 0.0000 -1.0000 -0.0000
vn 0.0000 -1.0000 -0.0000
vn 0.0000 -1.0000 -0.0000
vn 0.0000 -1.0000 -0.0000
vn 0.0000 0.7472 -0.6646
vn 0.0000 0.7472 -0.6646
vn 0.0000 0.7472 -0.6646
vn 0.0000 0.7472 -0.6646
vn 0.0000 0.5242 -0.8516
vn 0.0000 0.5242 -0.8516
vn 0.0000 0.5242 -0.8516
vn 0.0000 0.5242 -0.8516
vn 0.0000 0.2570 -0.9664
vn 0.0000 0.2570 -0.9664
vn 0.0000 0.2570 -0.9664
vn 0.0000 0.2570 -0.9664
vn 0.0000 -1.0000 -0.0000
vn 0.0000 -1.0000 -0.0000
vn 0.0000 -1.0000 -0.0000
vn 0.0000 -1.0000 -0.0000
vn 0.0000 1.0000 -0.0000
vn 0.0000 1.0000 -0.0000
vn 0.0000 1.0000 -0.0000
vn 0.0000 1.0000 -0.0000
vn 1.0000 0.0000 -0.0000
vn 1.0000 0.0000 -0.0000
vn 1.0000 0.0000 -0.0000
vn 1.0000 0.0000 -0.0000
vn 0.0000 -0.9898 0.1425
vn 0.0000 -0.9898 0.1425
vn 0.0000 -0.9898 0.1425
vn 0.0000 -0.9898 0.1425
vn 1.0000 0.0000 -0.0000
vn 1.0000 0.0000 -0.0000
vn 1.0000 0.0000 -0.0000
vn 1.0000 0.0000 -0.0000
vn 1.0000 0.0000 -0.0000
vn 1.0000 0.0000 -0.0000
vn 1.0000 0.0000 -0.0000
vn 1.0000 0.0000 -0.0000
vn 0.0000 -0.7472 0.6646
vn 0.0000 -0.7472 0.6646
vn 0.0000 -0.7472 0.6646
vn 0.0000 -0.7472 0.6646
vn 1.0000 0.0000 -0.0000
vn 1.0000 0.0000 -0.0000
vn 1.0000 0.0000 -0.0000
vn 1.0000 0.0000 -0.0000
vn 1.0000 0.0000 -0.0000
vn 1.0000 0.0000 -0.0000
vn 1.0000 0.0000 -0.0000
vn 1.0000 0.0000 -0.0000
vn 0.0000 -0.2586 0.9660
vn 0.0000 -0.2586 0.9660
vn 0.0000 -0.2586 0.9660
vn 0.0000 -0.2586 0.9660
vn 1.0000 0.0000 -0.0000
vn 1.0000 0.0000 -0.0000
vn 1.0000 0.0000 -0.0000
vn 1.0000 0.0000 -0.0000
vn 0.0000 0.0000 -1.0000
vn 0.0000 0.0000 -1.0000
vn 0.0000 0.0000 -1.0000
vn 0.0000 0.0000 -1.0000
vn 0.0000 -1.0000 -0.0000
vn 0.0000 -1.0000 -0.0000
vn 0.0000 -1.0000 -0.0000
vn 0.0000 -1.0000 -0.0000
vn 0.0000 1.0000 -0.0000
vn 0.0000 1.0000 -0.0000
vn 0.0000 1.0000 -0.0000
vn 0.0000 1.0000 -0.0000
vn 1.0000 0.0000 -0.0000
vn 1.0000 0.0000 -0.0000
vn 1.0000 0.0000 -0.0000
vn 1.0000 0.0000 -0.0000
vn 1.0000 0.0000 0.0000
vn 1.0000 0.0000 0.0000
vn 1.0000 0.0000 0.0000
vn 1.0000 0.0000 0.0000
vn 0.0000 -1.0000 -0.0000
vn 0.0000 -1.0000 -0.0000
vn 0.0000 -1.0000 -0.0000
vn 0.0000 -1.0000 -0.0000
vn 0.0000 0.0000 1.0000
vn 0.0000 0.0000 1.0000
vn 0.0000 0.0000 1.0000
vn 0.0000 0.0000 1.0000
vn 0.0000 1.0000 -0.0000
vn 0.0000 1.0000 -0.0000
vn 0.0000 1.0000 -0.0000
vn 0.0000 1.0000 -0.0000
vn 0.0000 0.0000 -1.0000
vn 0.0000 0.0000 -1.0000
vn 0.0000 0.0000 -1.0000
vn 0.0000 0.0000 -1.0000
vn 0.0000 -1.0000 -0.0000
vn 0.0000 -1.0000 -0.0000
vn 0.0000 -1.0000 -0.0000
vn 0.0000 -1.0000 -0.0000
vn 0.0000 0.0000 1.0000
vn 0.0000 0.0000 1.0000
vn 0.0000 0.0000 1.0000
vn 0.0000 0.0000 1.0000
vn 0.0000 0.0000 -1.0000
vn 0.0000 0.0000 -1.0000
vn 0.0000 0.0000 -1.0000
vn 0.0000 0.0000 -1.0000
vn -0.9928 0.1201 -0.0000
vn -0.9928 0.1201 -0.0000
vn -0.9928 0.1201 -0.0000
vn -0.9928 0.1201 -0.0000
vn 0.0000 0.0000 -1.0000
vn 0.0000 0.0000 -1.0000
vn 0.0000 0.0000 -1.0000
vn 0.0000 0.0000 -1.0000
vn 0.9928 -0.1201 -0.0000
vn 0.9928 -0.1201 -0.0000
vn 0.9928 -0.1201 -0.0000
vn 0.9928 -0.1201 -0.0000
vn 0.0000 0.0000 1.0000
vn 0.0000 0.0000 1.0000
vn 0.0000 0.0000 1.0000
vn 0.0000 0.0000 1.0000
vn 0.0000 0.9898 -0.1422
vn 0.0000 0.9898 -0.1422
vn 0.0000 0.9898 -0.1422
vn 0.0000 0.9898 -0.1422
vn 0.0000 0.9069 -0.4213
vn 0.0000 0.9069 -0.4213
vn 0.0000 0.9069 -0.4213
vn 0.0000 0.9069 -0.4213
vn 0.0000 1.0000 0.0000
vn 0.0000 1.0000 0.0000
vn 0.0000 1.0000 0.0000
vn 0.0000 1.0000 0.0000
vn 0.0000 0.9903 0.1392
vn 0.0000 0.9903 0.1392
vn 0.0000 0.9903 0.1392
vn 0.0000 0.9903 0.1392
vn -1.0000 0.0000 -0.0000
vn -1.0000 0.0000 -0.0000
vn -1.0000 0.0000 -0.0000
vn -1.0000 0.0000 -0.0000
vn -1.0000 0.0000 -0.0000
vn -1.0000 0.0000 -0.0000
vn -1.0000 0.0000 -0.0000
vn -1.0000 0.0000 -0.0000
vn 0.0000 -0.9069 0.4213
vn 0.0000 -0.9069 0.4213
vn 0.0000 -0.9069 0.4213
vn 0.0000 -0.9069 0.4213
vn -1.0000 0.0000 -0.0000
vn -1.0000 0.0000 -0.0000
vn -1.0000 0.0000 -0.0000
vn -1.0000 0.0000 -0.0000
vn -1.0000 -0.0000 -0.0000
vn -1.0000 -0.0000 -0.0000
vn -1.0000 -0.0000 -0.0000
vn -1.0000 -0.0000 -0.0000
vn 0.0000 -0.5242 0.8516
vn 0.0000 -0.5242 0.8516
vn 0.0000 -0.5242 0.8516
vn 0.0000 -0.5242 0.8516
vn -1.0000 0.0000 -0.0000
vn -1.0000 0.0000 -0.0000
vn -1.0000 0.0000 -0.0000
vn -1.0000 0.0000 -0.0000
vn -1.0000 0.0000 -0.0000
vn -1.0000 0.0000 -0.0000
vn -1.0000 0.0000 -0.0000
vn -1.0000 0.0000 -0.0000
vn -1.0000 0.0000 -0.0000
vn -1.0000 0.0000 -0.0000
vn -1.0000 0.0000 -0.0000
vn -1.0000 0.0000 -0.0000
vn -1.0000 0.0000 -0.0000
vn -1.0000 0.0000 -0.0000
vn -1.0000 0.0000 -0.0000
vn -1.0000 0.0000 -0.0000
vn 0.0000 -1.0000 -0.0000
vn 0.0000 -1.0000 -0.0000
vn 0.0000 -1.0000 -0.0000
vn 0.0000 -1.0000 -0.0000
vn 0.0000 0.0000 1.0000
vn 0.0000 0.0000 1.0000
vn 0.0000 0.0000 1.0000
vn 0.0000 0.0000 1.0000
vn 0.0000 1.0000 -0.0000
vn 0.0000 1.0000 -0.0000
vn 0.0000 1.0000 -0.0000
vn 0.0000 1.0000 -0.0000
vn 0.0000 0.0000 -1.0000
vn 0.0000 0.0000 -1.0000
vn 0.0000 0.0000 -1.0000
vn 0.0000 0.0000 -1.0000
vn 0.0000 -1.0000 -0.0000
vn 0.0000 -1.0000 -0.0000
vn 0.0000 -1.0000 -0.0000
vn 0.0000 -1.0000 -0.0000
vn 0.0000 0.0000 1.0000
vn 0.0000 0.0000 1.0000
vn 0.0000 0.0000 1.0000
vn 0.0000 0.0000 1.0000
vn 0.0000 0.0000 -1.0000
vn 0.0000 0.0000 -1.0000
vn 0.0000 0.0000 -1.0000
vn 0.0000 0.0000 -1.0000
vn 0.9928 0.1201 -0.0000
vn 0.9928 0.1201 -0.0000
vn 0.9928 0.1201 -0.0000
vn 0.9928 0.1201 -0.0000
vn 0.0000 0.0000 -1.0000
vn 0.0000 0.0000 -1.0000
vn 0.0000 0.0000 -1.0000
vn 0.0000 0.0000 -1.0000
vn -0.9928 -0.1201 -0.0000
vn -0.9928 -0.1201 -0.0000
vn -0.9928 -0.1201 -0.0000
vn -0.9928 -0.1201 -0.0000
vn 0.0000 0.0000 1.0000
vn 0.0000 0.0000 1.0000
vn 0.0000 0.0000 1.0000
vn 0.0000 0.0000 1.0000
vn 0.0000 -1.0000 -0.0000
vn 0.0000 -1.0000 -0.0000
vn 0.0000 -1.0000 -0.0000
vn 0.0000 -1.0000 -0.0000
vn 0.0000 0.7472 -0.6646
vn 0.0000 0.7472 -0.6646
vn 0.0000 0.7472 -0.6646
vn 0.0000 0.7472 -0.6646
vn 0.0000 0.5242 -0.8516
vn 0.0000 0.5242 -0.8516
vn 0.0000 0.5242 -0.8516
vn 0.0000 0.5242 -0.8516
vn 0.0000 0.2570 -0.9664
vn 0.0000 0.2570 -0.9664
vn 0.0000 0.2570 -0.9664
vn 0.0000 0.2570 -0.9664
vn 0.0000 -1.0000 -0.0000
vn 0.0000 -1.0000 -0.0000
vn 0.0000 -1.0000 -0.0000
vn 0.0000 -1.0000 -0.0000
# 448 vertex normals

vt 0.1512 0.5844 0.0000
vt 0.1512 0.6149 0.0000
vt 0.0871 0.6149 0.0000
vt 0.0871 0.5844 0.0000
vt 0.3112 0.3946 0.0000
vt 0.2173 0.3946 0.0000
vt 0.2173 0.3946 0.0000
vt 0.3112 0.3946 0.0000
vt 0.1512 0.8339 0.0000
vt 0.0871 0.8339 0.0000
vt 0.0871 0.8818 0.0000
vt 0.1512 0.8818 0.0000
vt 0.1512 0.8339 0.0000
vt 0.1512 0.8754 0.0000
vt 0.1512 0.9258 0.0000
vt 0.1512 0.9134 0.0000
vt 0.0871 0.9258 0.0000
vt 0.0871 0.9621 0.0000
vt 0.1512 0.9621 0.0000
vt 0.1512 0.9447 0.0000
vt 0.1512 0.9875 0.0000
vt 0.1512 0.9667 0.0000
vt 0.0871 0.9875 0.0000
vt 0.0871 1.0000 0.0000
vt 0.1512 1.0000 0.0000
vt 0.1512 0.9775 0.0000
vt 0.1512 0.0000 0.0000
vt 0.1512 0.0000 0.0000
vt 0.0871 0.0000 0.0000
vt 0.0871 0.0000 0.0000
vt 0.1512 0.5844 0.0000
vt 0.0871 0.5844 0.0000
vt 0.0871 0.8339 0.0000
vt 0.1512 0.6149 0.0000
vt 0.3112 0.2331 0.0000
vt 0.2173 0.2331 0.0000
vt 0.2173 0.3138 0.0000
vt 0.3112 0.3138 0.0000
vt 0.2173 0.2331 0.0000
vt 0.2173 0.3138 0.0000
vt 0.3112 0.2331 0.0000
vt 0.3112 0.3138 0.0000
vt 0.0871 0.8754 0.0000
vt 0.0871 0.9134 0.0000
vt 0.0871 0.9775 0.0000
vt 0.3112 0.4149 0.0000
vt 0.2173 0.4149 0.0000
vt 0.3112 0.4957 0.0000
vt 0.2173 0.4957 0.0000
vt 0.0871 0.9447 0.0000
vt 0.0871 0.9667 0.0000
vt 0.0871 0.6149 0.0000
vt 0.3155 0.4740 0.0000
vt 0.3155 0.4740 0.0000
vt 0.4093 0.4740 0.0000
vt 0.4093 0.4740 0.0000
vt 0.3155 0.3125 0.0000
vt 0.3155 0.3932 0.0000
vt 0.4093 0.3932 0.0000
vt 0.4093 0.3125 0.0000
vt 0.0853 0.5844 0.0000
vt 0.1494 0.5844 0.0000
vt 0.1494 0.6149 0.0000
vt 0.0853 0.6149 0.0000
vt 0.4093 0.3932 0.0000
vt 0.4093 0.3125 0.0000
vt 0.3155 0.3932 0.0000
vt 0.3155 0.3125 0.0000
vt 0.0853 0.8339 0.0000
vt 0.0853 0.8818 0.0000
vt 0.1494 0.8818 0.0000
vt 0.1494 0.8339 0.0000
vt 0.0853 0.8339 0.0000
vt 0.0853 0.8754 0.0000
vt 0.0853 0.9134 0.0000
vt 0.0853 0.9258 0.0000
vt 0.0853 0.9621 0.0000
vt 0.1494 0.9621 0.0000
vt 0.1494 0.9258 0.0000
vt 0.0853 0.9447 0.0000
vt 0.0853 0.9667 0.0000
vt 0.0853 0.9875 0.0000
vt 0.0853 1.0000 0.0000
vt 0.1494 1.0000 0.0000
vt 0.1494 0.9875 0.0000
vt 0.0853 0.9775 0.0000
vt 0.0853 0.0000 0.0000
vt 0.1494 0.0000 0.0000
vt 0.1494 0.0000 0.0000
vt 0.0853 0.0000 0.0000
vt 0.0853 0.5844 0.0000
vt 0.1494 0.5844 0.0000
vt 0.1494 0.8339 0.0000
vt 0.0853 0.6149 0.0000
vt 0.4093 0.4943 0.0000
vt 0.3155 0.4943 0.0000
vt 0.3155 0.5751 0.0000
vt 0.4093 0.5751 0.0000
vt 0.3168 0.4738 0.0000
vt 0.3168 0.4738 0.0000
vt 0.4107 0.4738 0.0000
vt 0.4107 0.4738 0.0000
vt 0.1494 0.8754 0.0000
vt 0.1494 0.9134 0.0000
vt 0.1494 0.9775 0.0000
vt 0.3168 0.3123 0.0000
vt 0.3168 0.3930 0.0000
vt 0.4107 0.3930 0.0000
vt 0.4107 0.3123 0.0000
vt 0.1494 0.9447 0.0000
vt 0.1494 0.9667 0.0000
vt 0.1494 0.6149 0.0000
vt 0.4107 0.3930 0.0000
vt 0.4107 0.3123 0.0000
vt 0.3168 0.3930 0.0000
vt 0.3168 0.3123 0.0000
vt 0.4107 0.4941 0.0000
vt 0.3168 0.4941 0.0000
vt 0.3168 0.5749 0.0000
vt 0.4107 0.5749 0.0000
vt 0.3114 0.3955 0.0000
vt 0.2176 0.3955 0.0000
vt 0.2176 0.3955 0.0000
vt 0.3114 0.3955 0.0000
vt 0.3114 0.2340 0.0000
vt 0.2176 0.2340 0.0000
vt 0.2176 0.3147 0.0000
vt 0.3114 0.3147 0.0000
vt 0.2176 0.2340 0.0000
vt 0.2176 0.3147 0.0000
vt 0.3114 0.2340 0.0000
vt 0.3114 0.3147 0.0000
vt 0.3114 0.4158 0.0000
vt 0.2176 0.4158 0.0000
vt 0.3114 0.4966 0.0000
vt 0.2176 0.4966 0.0000
# 136 texture coords

g Llantas3
usemtl Llantas3
s off
f 17/1/1 18/2/2 34/3/3 33/4/4 
f 23/5/5 24/6/6 25/7/7 26/8/8 
f 3/9/9 39/10/10 40/11/11 5/12/12 
f 4/13/13 3/9/14 5/12/15 6/14/16 
f 6/14/17 5/12/18 7/15/19 8/16/20 
f 7/15/21 43/17/22 45/18/23 9/19/24 
f 8/16/25 7/15/26 9/19/27 10/20/28 
f 10/20/29 9/19/30 11/21/31 12/22/32 
f 11/21/33 47/23/34 31/24/35 13/25/36 
f 12/22/37 11/21/38 13/25/39 14/26/40 
f 1/27/41 2/28/42 50/29/43 49/30/44 
f 15/31/45 1/27/46 49/30/47 51/32/48 
f 18/2/49 4/13/50 41/33/51 34/3/52 
f 16/34/53 3/9/54 4/13/55 18/2/56 
f 17/1/57 2/28/58 1/27/59 15/31/60 
f 15/35/61 16/36/62 20/37/63 19/38/64 
f 16/36/65 18/39/66 21/40/67 20/37/68 
f 18/39/69 17/41/70 22/42/71 21/40/72 
f 17/41/73 15/35/74 19/38/75 22/42/76 
f 19/38/77 20/37/78 24/6/79 23/5/80 
f 20/37/81 21/40/82 25/7/83 24/6/84 
f 22/42/85 19/38/86 23/5/87 26/8/88 
f 21/40/89 22/42/90 28/46/91 27/47/92 
f 22/42/93 26/8/94 29/48/95 28/46/96 
f 26/8/97 25/7/98 30/49/99 29/48/100 
f 25/7/101 21/40/102 27/47/103 30/49/104 
f 4/13/105 6/14/106 42/43/107 41/33/108 
f 6/14/109 8/16/110 44/44/111 42/43/112 
f 2/28/113 17/1/114 33/4/115 50/29/116 
s 8
f 31/24/117 32/45/118 14/26/119 13/25/120 
s off
f 35/53/121 38/54/122 37/55/123 36/56/124 
f 41/33/125 42/43/126 40/11/127 39/10/128 
f 40/11/129 43/17/130 7/15/131 5/12/132 
f 42/43/133 44/44/134 43/17/135 40/11/136 
f 44/44/137 46/50/138 45/18/139 43/17/140 
f 45/18/141 47/23/142 11/21/143 9/19/144 
f 46/50/145 48/51/146 47/23/147 45/18/148 
f 48/51/149 32/45/150 31/24/151 47/23/152 
f 52/52/153 34/3/154 41/33/155 39/10/156 
f 33/4/157 51/32/158 49/30/159 50/29/160 
f 51/57/161 54/58/162 53/59/163 52/60/164 
f 52/60/165 53/59/166 55/65/167 34/66/168 
f 34/66/169 55/65/170 56/67/171 33/68/172 
f 33/68/173 56/67/174 54/58/175 51/57/176 
f 54/58/177 35/53/178 36/56/179 53/59/180 
f 53/59/181 36/56/182 37/55/183 55/65/184 
f 56/67/185 38/54/186 35/53/187 54/58/188 
f 55/65/189 58/95/190 57/96/191 56/67/192 
f 56/67/193 57/96/194 59/97/195 38/54/196 
f 38/54/197 59/97/198 60/98/199 37/55/200 
f 37/55/201 60/98/202 58/95/203 55/65/204 
f 16/34/205 15/31/206 51/32/207 52/52/208 
f 8/16/209 10/20/210 46/50/211 44/44/212 
f 10/20/213 12/22/214 48/51/215 46/50/216 
f 12/22/217 14/26/218 32/45/219 48/51/220 
f 3/9/221 16/34/222 52/52/223 39/10/224 
f 63/61/225 93/62/226 94/63/227 64/64/228 
f 65/99/229 68/100/230 67/101/231 66/102/232 
f 69/69/233 70/70/234 100/71/235 99/72/236 
f 71/73/237 72/74/238 70/70/239 69/69/240 
f 72/74/241 74/75/242 73/76/243 70/70/244 
f 73/76/245 75/77/246 105/78/247 103/79/248 
f 74/75/249 76/80/250 75/77/251 73/76/252 
f 76/80/253 78/81/254 77/82/255 75/77/256 
f 77/82/257 61/83/258 91/84/259 107/85/260 
f 78/81/261 62/86/262 61/83/263 77/82/264 
f 79/87/265 109/88/266 110/89/267 80/90/268 
f 81/91/269 111/92/270 109/88/271 79/87/272 
f 64/64/273 94/63/274 101/93/275 71/73/276 
f 82/94/277 64/64/278 71/73/279 69/69/280 
f 63/61/281 81/91/282 79/87/283 80/90/284 
f 81/106/285 84/107/286 83/108/287 82/109/288 
f 82/109/289 83/108/290 85/113/291 64/114/292 
f 64/114/293 85/113/294 86/115/295 63/116/296 
f 63/116/297 86/115/298 84/107/299 81/106/300 
f 84/107/301 65/99/302 66/102/303 83/108/304 
f 83/108/305 66/102/306 67/101/307 85/113/308 
f 86/115/309 68/100/310 65/99/311 84/107/312 
f 85/113/313 88/117/314 87/118/315 86/115/316 
f 86/115/317 87/118/318 89/119/319 68/100/320 
f 68/100/321 89/119/322 90/120/323 67/101/324 
f 67/101/325 90/120/326 88/117/327 85/113/328 
f 101/93/329 102/103/330 72/74/331 71/73/332 
f 102/103/333 104/104/334 74/75/335 72/74/336 
f 110/89/337 93/62/338 63/61/339 80/90/340 
s 8
f 91/84/341 61/83/342 62/86/343 92/105/344 
s off
f 95/121/345 98/122/346 97/123/347 96/124/348 
f 101/93/349 99/72/350 100/71/351 102/103/352 
f 100/71/353 70/70/354 73/76/355 103/79/356 
f 102/103/357 100/71/358 103/79/359 104/104/360 
f 104/104/361 103/79/362 105/78/363 106/110/364 
f 105/78/365 75/77/366 77/82/367 107/85/368 
f 106/110/369 105/78/370 107/85/371 108/111/372 
f 108/111/373 107/85/374 91/84/375 92/105/376 
f 112/112/377 99/72/378 101/93/379 94/63/380 
f 93/62/381 110/89/382 109/88/383 111/92/384 
f 111/125/385 112/126/386 114/127/387 113/128/388 
f 112/126/389 94/129/390 115/130/391 114/127/392 
f 94/129/393 93/131/394 116/132/395 115/130/396 
f 93/131/397 111/125/398 113/128/399 116/132/400 
f 113/128/401 114/127/402 98/122/403 95/121/404 
f 114/127/405 115/130/406 97/123/407 98/122/408 
f 116/132/409 113/128/410 95/121/411 96/124/412 
f 115/130/413 116/132/414 118/133/415 117/134/416 
f 116/132/417 96/124/418 119/135/419 118/133/420 
f 96/124/421 97/123/422 120/136/423 119/135/424 
f 97/123/425 115/130/426 117/134/427 120/136/428 
f 112/112/429 111/92/430 81/91/431 82/94/432 
f 104/104/433 106/110/434 76/80/435 74/75/436 
f 106/110/437 108/111/438 78/81/439 76/80/440 
f 108/111/441 92/105/442 62/86/443 78/81/444 
f 99/72/445 112/112/446 82/94/447 69/69/448 
# 112 polygons

